G04 #@! TF.FileFunction,Legend,Top*
%FSLAX46Y46*%
G04 Gerber Fmt 4.6, Leading zero omitted, Abs format (unit mm)*
G04 Created by KiCad (PCBNEW 4.0.1-stable) date Dienstag, 26. April 2016 14:06:35*
%MOMM*%
G01*
G04 APERTURE LIST*
%ADD10C,0.100000*%
%ADD11C,0.150000*%
G04 APERTURE END LIST*
D10*
D11*
X100530660Y-119534940D02*
X95450660Y-119534940D01*
X95450660Y-119534940D02*
X95450660Y-116994940D01*
X95450660Y-116994940D02*
X100530660Y-116994940D01*
X100530660Y-116994940D02*
X100530660Y-119534940D01*
X100530660Y-118264940D02*
X101800660Y-118264940D01*
X95450660Y-118264940D02*
X94180660Y-118264940D01*
X100530660Y-124614940D02*
X95450660Y-124614940D01*
X95450660Y-124614940D02*
X95450660Y-122074940D01*
X95450660Y-122074940D02*
X100530660Y-122074940D01*
X100530660Y-122074940D02*
X100530660Y-124614940D01*
X100530660Y-123344940D02*
X101800660Y-123344940D01*
X95450660Y-123344940D02*
X94180660Y-123344940D01*
X100530660Y-122074940D02*
X95450660Y-122074940D01*
X95450660Y-122074940D02*
X95450660Y-119534940D01*
X95450660Y-119534940D02*
X100530660Y-119534940D01*
X100530660Y-119534940D02*
X100530660Y-122074940D01*
X100530660Y-120804940D02*
X101800660Y-120804940D01*
X95450660Y-120804940D02*
X94180660Y-120804940D01*
X147525400Y-83905200D02*
X147525400Y-82635200D01*
X140175400Y-83905200D02*
X140175400Y-82635200D01*
X140175400Y-61535200D02*
X140175400Y-62805200D01*
X147525400Y-61535200D02*
X147525400Y-62805200D01*
X147525400Y-83905200D02*
X140175400Y-83905200D01*
X147525400Y-61535200D02*
X140175400Y-61535200D01*
X147525400Y-82635200D02*
X148810400Y-82635200D01*
X153230200Y-114402980D02*
X153230200Y-113132980D01*
X145880200Y-114402980D02*
X145880200Y-113132980D01*
X145880200Y-92032980D02*
X145880200Y-93302980D01*
X153230200Y-92032980D02*
X153230200Y-93302980D01*
X153230200Y-114402980D02*
X145880200Y-114402980D01*
X153230200Y-92032980D02*
X145880200Y-92032980D01*
X153230200Y-113132980D02*
X154515200Y-113132980D01*
X151088980Y-142497920D02*
X151088980Y-141227920D01*
X143738980Y-142497920D02*
X143738980Y-141227920D01*
X143738980Y-120127920D02*
X143738980Y-121397920D01*
X151088980Y-120127920D02*
X151088980Y-121397920D01*
X151088980Y-142497920D02*
X143738980Y-142497920D01*
X151088980Y-120127920D02*
X143738980Y-120127920D01*
X151088980Y-141227920D02*
X152373980Y-141227920D01*
X115458711Y-124534120D02*
G75*
G03X115458711Y-124534120I-286531J0D01*
G01*
X107592180Y-128864120D02*
X107362180Y-128634120D01*
X107822180Y-128634120D02*
X107592180Y-128864120D01*
X107822180Y-125564120D02*
X107822180Y-128634120D01*
X107582180Y-125344120D02*
X107822180Y-125564120D01*
X107352180Y-125574120D02*
X107582180Y-125344120D01*
X107352180Y-128634120D02*
X107352180Y-125574120D01*
X111255427Y-125184267D02*
X111025427Y-125414267D01*
X111025427Y-124954267D02*
X111255427Y-125184267D01*
X107955427Y-124954267D02*
X111025427Y-124954267D01*
X107965427Y-125424267D02*
X107735427Y-125194267D01*
X107735427Y-125194267D02*
X107955427Y-124954267D01*
X111025427Y-125424267D02*
X107965427Y-125424267D01*
X111255427Y-128984267D02*
X111025427Y-129214267D01*
X111025427Y-128754267D02*
X111255427Y-128984267D01*
X107955427Y-128754267D02*
X111025427Y-128754267D01*
X107965427Y-129224267D02*
X107735427Y-128994267D01*
X107735427Y-128994267D02*
X107955427Y-128754267D01*
X111025427Y-129224267D02*
X107965427Y-129224267D01*
X111382327Y-125320873D02*
X111612327Y-125550873D01*
X111152327Y-125550873D02*
X111382327Y-125320873D01*
X111152327Y-128620873D02*
X111152327Y-125550873D01*
X111622327Y-128610873D02*
X111392327Y-128840873D01*
X111392327Y-128840873D02*
X111152327Y-128620873D01*
X111622327Y-125550873D02*
X111622327Y-128610873D01*
X111525427Y-128974267D02*
X111745427Y-128734267D01*
X111755427Y-129204267D02*
X111525427Y-128974267D01*
X111745427Y-124934267D02*
X114815427Y-124934267D01*
X111525427Y-125174267D02*
X111745427Y-124934267D01*
X111755427Y-125404267D02*
X111525427Y-125174267D01*
X114815427Y-128734267D02*
X115045427Y-128964267D01*
X115045427Y-128964267D02*
X114815427Y-129194267D01*
X115045427Y-125164267D02*
X114815427Y-125394267D01*
X114815427Y-124934267D02*
X115045427Y-125164267D01*
X115172327Y-125300873D02*
X115402327Y-125530873D01*
X114942327Y-125530873D02*
X115172327Y-125300873D01*
X114815427Y-129204267D02*
X111755427Y-129204267D01*
X114815427Y-125404267D02*
X111755427Y-125404267D01*
X115182327Y-128820873D02*
X114942327Y-128600873D01*
X111745427Y-128734267D02*
X114815427Y-128734267D01*
X114942327Y-128600873D02*
X114942327Y-125530873D01*
X115412327Y-128590873D02*
X115182327Y-128820873D01*
X115412327Y-125530873D02*
X115412327Y-128590873D01*
X115466331Y-135176720D02*
G75*
G03X115466331Y-135176720I-286531J0D01*
G01*
X107599800Y-139506720D02*
X107369800Y-139276720D01*
X107829800Y-139276720D02*
X107599800Y-139506720D01*
X107829800Y-136206720D02*
X107829800Y-139276720D01*
X107589800Y-135986720D02*
X107829800Y-136206720D01*
X107359800Y-136216720D02*
X107589800Y-135986720D01*
X107359800Y-139276720D02*
X107359800Y-136216720D01*
X111263047Y-135826867D02*
X111033047Y-136056867D01*
X111033047Y-135596867D02*
X111263047Y-135826867D01*
X107963047Y-135596867D02*
X111033047Y-135596867D01*
X107973047Y-136066867D02*
X107743047Y-135836867D01*
X107743047Y-135836867D02*
X107963047Y-135596867D01*
X111033047Y-136066867D02*
X107973047Y-136066867D01*
X111263047Y-139626867D02*
X111033047Y-139856867D01*
X111033047Y-139396867D02*
X111263047Y-139626867D01*
X107963047Y-139396867D02*
X111033047Y-139396867D01*
X107973047Y-139866867D02*
X107743047Y-139636867D01*
X107743047Y-139636867D02*
X107963047Y-139396867D01*
X111033047Y-139866867D02*
X107973047Y-139866867D01*
X111389947Y-135963473D02*
X111619947Y-136193473D01*
X111159947Y-136193473D02*
X111389947Y-135963473D01*
X111159947Y-139263473D02*
X111159947Y-136193473D01*
X111629947Y-139253473D02*
X111399947Y-139483473D01*
X111399947Y-139483473D02*
X111159947Y-139263473D01*
X111629947Y-136193473D02*
X111629947Y-139253473D01*
X111533047Y-139616867D02*
X111753047Y-139376867D01*
X111763047Y-139846867D02*
X111533047Y-139616867D01*
X111753047Y-135576867D02*
X114823047Y-135576867D01*
X111533047Y-135816867D02*
X111753047Y-135576867D01*
X111763047Y-136046867D02*
X111533047Y-135816867D01*
X114823047Y-139376867D02*
X115053047Y-139606867D01*
X115053047Y-139606867D02*
X114823047Y-139836867D01*
X115053047Y-135806867D02*
X114823047Y-136036867D01*
X114823047Y-135576867D02*
X115053047Y-135806867D01*
X115179947Y-135943473D02*
X115409947Y-136173473D01*
X114949947Y-136173473D02*
X115179947Y-135943473D01*
X114823047Y-139846867D02*
X111763047Y-139846867D01*
X114823047Y-136046867D02*
X111763047Y-136046867D01*
X115189947Y-139463473D02*
X114949947Y-139243473D01*
X111753047Y-139376867D02*
X114823047Y-139376867D01*
X114949947Y-139243473D02*
X114949947Y-136173473D01*
X115419947Y-139233473D02*
X115189947Y-139463473D01*
X115419947Y-136173473D02*
X115419947Y-139233473D01*
X81000478Y-52997524D02*
X81000478Y-54267524D01*
X88350478Y-52997524D02*
X88350478Y-54267524D01*
X88350478Y-75367524D02*
X88350478Y-74097524D01*
X81000478Y-75367524D02*
X81000478Y-74097524D01*
X81000478Y-52997524D02*
X88350478Y-52997524D01*
X81000478Y-75367524D02*
X88350478Y-75367524D01*
X81000478Y-54267524D02*
X79715478Y-54267524D01*
X86102080Y-93644340D02*
X87372080Y-93644340D01*
X86102080Y-86294340D02*
X87372080Y-86294340D01*
X108472080Y-86294340D02*
X107202080Y-86294340D01*
X108472080Y-93644340D02*
X107202080Y-93644340D01*
X86102080Y-93644340D02*
X86102080Y-86294340D01*
X108472080Y-93644340D02*
X108472080Y-86294340D01*
X87372080Y-93644340D02*
X87372080Y-94929340D01*
X102297840Y-76161900D02*
X102297840Y-73621900D01*
X102017840Y-78981900D02*
X102017840Y-77431900D01*
X102297840Y-76161900D02*
X104837840Y-76161900D01*
X105117840Y-77431900D02*
X105117840Y-78981900D01*
X105117840Y-78981900D02*
X102017840Y-78981900D01*
X104837840Y-76161900D02*
X104837840Y-73621900D01*
X104837840Y-73621900D02*
X102297840Y-73621900D01*
X106916220Y-62456060D02*
X106916220Y-49756060D01*
X106916220Y-49756060D02*
X109456220Y-49756060D01*
X109456220Y-49756060D02*
X109456220Y-62456060D01*
X106636220Y-65276060D02*
X106636220Y-63726060D01*
X106916220Y-62456060D02*
X109456220Y-62456060D01*
X109736220Y-63726060D02*
X109736220Y-65276060D01*
X109736220Y-65276060D02*
X106636220Y-65276060D01*
X124957840Y-51059080D02*
X124957840Y-48519080D01*
X118607840Y-48519080D02*
X124957840Y-48519080D01*
X118607840Y-48519080D02*
X118607840Y-51059080D01*
X112511840Y-51059080D02*
X131053840Y-51059080D01*
X112511840Y-94239080D02*
X112511840Y-51059080D01*
X131053840Y-94239080D02*
X112511840Y-94239080D01*
X131053840Y-94239080D02*
X131053840Y-51059080D01*
X85783420Y-136446260D02*
X85783420Y-141526260D01*
X85783420Y-141526260D02*
X83243420Y-141526260D01*
X83243420Y-141526260D02*
X83243420Y-136446260D01*
X83243420Y-136446260D02*
X85783420Y-136446260D01*
X84513420Y-136446260D02*
X84513420Y-135176260D01*
X84513420Y-141526260D02*
X84513420Y-142796260D01*
X168836000Y-77580600D02*
X168836000Y-76310600D01*
X161486000Y-77580600D02*
X161486000Y-76310600D01*
X161486000Y-50130600D02*
X161486000Y-51400600D01*
X168836000Y-50130600D02*
X168836000Y-51400600D01*
X168836000Y-77580600D02*
X161486000Y-77580600D01*
X168836000Y-50130600D02*
X161486000Y-50130600D01*
X168836000Y-76310600D02*
X170121000Y-76310600D01*
X190992800Y-60071000D02*
X190992800Y-54991000D01*
X190992800Y-54991000D02*
X193532800Y-54991000D01*
X193532800Y-54991000D02*
X193532800Y-60071000D01*
X193532800Y-60071000D02*
X190992800Y-60071000D01*
X192262800Y-60071000D02*
X192262800Y-61341000D01*
X192262800Y-54991000D02*
X192262800Y-53721000D01*
X205234200Y-69909800D02*
X205234200Y-68639800D01*
X197884200Y-69909800D02*
X197884200Y-68639800D01*
X197884200Y-50079800D02*
X197884200Y-51349800D01*
X205234200Y-50079800D02*
X205234200Y-51349800D01*
X205234200Y-69909800D02*
X197884200Y-69909800D01*
X205234200Y-50079800D02*
X197884200Y-50079800D01*
X205234200Y-68639800D02*
X206519200Y-68639800D01*
X189232200Y-69909800D02*
X189232200Y-68639800D01*
X181882200Y-69909800D02*
X181882200Y-68639800D01*
X181882200Y-50079800D02*
X181882200Y-51349800D01*
X189232200Y-50079800D02*
X189232200Y-51349800D01*
X189232200Y-69909800D02*
X181882200Y-69909800D01*
X189232200Y-50079800D02*
X181882200Y-50079800D01*
X189232200Y-68639800D02*
X190517200Y-68639800D01*
X161486000Y-92447000D02*
X161486000Y-93717000D01*
X176456000Y-92447000D02*
X176456000Y-93717000D01*
X176456000Y-130057000D02*
X176456000Y-128787000D01*
X161486000Y-130057000D02*
X161486000Y-128787000D01*
X161486000Y-92447000D02*
X176456000Y-92447000D01*
X161486000Y-130057000D02*
X176456000Y-130057000D01*
X161486000Y-93717000D02*
X160201000Y-93717000D01*
X205310400Y-109483000D02*
X205310400Y-108213000D01*
X197960400Y-109483000D02*
X197960400Y-108213000D01*
X197960400Y-82033000D02*
X197960400Y-83303000D01*
X205310400Y-82033000D02*
X205310400Y-83303000D01*
X205310400Y-109483000D02*
X197960400Y-109483000D01*
X205310400Y-82033000D02*
X197960400Y-82033000D01*
X205310400Y-108213000D02*
X206595400Y-108213000D01*
X205462800Y-142706200D02*
X205462800Y-141436200D01*
X198112800Y-142706200D02*
X198112800Y-141436200D01*
X198112800Y-115256200D02*
X198112800Y-116526200D01*
X205462800Y-115256200D02*
X205462800Y-116526200D01*
X205462800Y-142706200D02*
X198112800Y-142706200D01*
X205462800Y-115256200D02*
X198112800Y-115256200D01*
X205462800Y-141436200D02*
X206747800Y-141436200D01*
X109484160Y-68821300D02*
X109484160Y-81521300D01*
X109484160Y-81521300D02*
X106944160Y-81521300D01*
X106944160Y-81521300D02*
X106944160Y-68821300D01*
X109764160Y-66001300D02*
X109764160Y-67551300D01*
X109484160Y-68821300D02*
X106944160Y-68821300D01*
X106664160Y-67551300D02*
X106664160Y-66001300D01*
X106664160Y-66001300D02*
X109764160Y-66001300D01*
X85783420Y-120682260D02*
X85783420Y-125762260D01*
X85783420Y-125762260D02*
X83243420Y-125762260D01*
X83243420Y-125762260D02*
X83243420Y-120682260D01*
X83243420Y-120682260D02*
X85783420Y-120682260D01*
X84513420Y-120682260D02*
X84513420Y-119412260D01*
X84513420Y-125762260D02*
X84513420Y-127032260D01*
X80830420Y-133407660D02*
X80830420Y-128327660D01*
X80830420Y-128327660D02*
X83370420Y-128327660D01*
X83370420Y-128327660D02*
X83370420Y-133407660D01*
X83370420Y-133407660D02*
X80830420Y-133407660D01*
X82100420Y-133407660D02*
X82100420Y-134677660D01*
X82100420Y-128327660D02*
X82100420Y-127057660D01*
X79154020Y-142272260D02*
G75*
G03X79154020Y-142272260I-2540000J0D01*
G01*
X80424020Y-138462260D02*
X80424020Y-146082260D01*
X80424020Y-146082260D02*
X72804020Y-146082260D01*
X72804020Y-146082260D02*
X72804020Y-138462260D01*
X80424020Y-138462260D02*
X72804020Y-138462260D01*
X79154020Y-121952260D02*
G75*
G03X79154020Y-121952260I-2540000J0D01*
G01*
X80424020Y-118142260D02*
X80424020Y-125762260D01*
X80424020Y-125762260D02*
X72804020Y-125762260D01*
X72804020Y-125762260D02*
X72804020Y-118142260D01*
X80424020Y-118142260D02*
X72804020Y-118142260D01*
X79154020Y-132112260D02*
G75*
G03X79154020Y-132112260I-2540000J0D01*
G01*
X80424020Y-128302260D02*
X80424020Y-135922260D01*
X80424020Y-135922260D02*
X72804020Y-135922260D01*
X72804020Y-135922260D02*
X72804020Y-128302260D01*
X80424020Y-128302260D02*
X72804020Y-128302260D01*
X102297840Y-69913500D02*
X102297840Y-67373500D01*
X102017840Y-72733500D02*
X102017840Y-71183500D01*
X102297840Y-69913500D02*
X104837840Y-69913500D01*
X105117840Y-71183500D02*
X105117840Y-72733500D01*
X105117840Y-72733500D02*
X102017840Y-72733500D01*
X104837840Y-69913500D02*
X104837840Y-67373500D01*
X104837840Y-67373500D02*
X102297840Y-67373500D01*
X102295300Y-63500000D02*
X102295300Y-60960000D01*
X102015300Y-66320000D02*
X102015300Y-64770000D01*
X102295300Y-63500000D02*
X104835300Y-63500000D01*
X105115300Y-64770000D02*
X105115300Y-66320000D01*
X105115300Y-66320000D02*
X102015300Y-66320000D01*
X104835300Y-63500000D02*
X104835300Y-60960000D01*
X104835300Y-60960000D02*
X102295300Y-60960000D01*
X102295300Y-57467500D02*
X102295300Y-54927500D01*
X102015300Y-60287500D02*
X102015300Y-58737500D01*
X102295300Y-57467500D02*
X104835300Y-57467500D01*
X105115300Y-58737500D02*
X105115300Y-60287500D01*
X105115300Y-60287500D02*
X102015300Y-60287500D01*
X104835300Y-57467500D02*
X104835300Y-54927500D01*
X104835300Y-54927500D02*
X102295300Y-54927500D01*
X100530660Y-134774940D02*
X95450660Y-134774940D01*
X95450660Y-134774940D02*
X95450660Y-132234940D01*
X95450660Y-132234940D02*
X100530660Y-132234940D01*
X100530660Y-132234940D02*
X100530660Y-134774940D01*
X100530660Y-133504940D02*
X101800660Y-133504940D01*
X95450660Y-133504940D02*
X94180660Y-133504940D01*
X100530660Y-137314940D02*
X95450660Y-137314940D01*
X95450660Y-137314940D02*
X95450660Y-134774940D01*
X95450660Y-134774940D02*
X100530660Y-134774940D01*
X100530660Y-134774940D02*
X100530660Y-137314940D01*
X100530660Y-136044940D02*
X101800660Y-136044940D01*
X95450660Y-136044940D02*
X94180660Y-136044940D01*
X122544840Y-131089400D02*
X127624840Y-131089400D01*
X127624840Y-131089400D02*
X127624840Y-133629400D01*
X127624840Y-133629400D02*
X122544840Y-133629400D01*
X122544840Y-133629400D02*
X122544840Y-131089400D01*
X122544840Y-132359400D02*
X121274840Y-132359400D01*
X127624840Y-132359400D02*
X128894840Y-132359400D01*
X122524520Y-141253720D02*
X127604520Y-141253720D01*
X127604520Y-141253720D02*
X127604520Y-143793720D01*
X127604520Y-143793720D02*
X122524520Y-143793720D01*
X122524520Y-143793720D02*
X122524520Y-141253720D01*
X122524520Y-142523720D02*
X121254520Y-142523720D01*
X127604520Y-142523720D02*
X128874520Y-142523720D01*
X122524520Y-138713720D02*
X127604520Y-138713720D01*
X127604520Y-138713720D02*
X127604520Y-141253720D01*
X127604520Y-141253720D02*
X122524520Y-141253720D01*
X122524520Y-141253720D02*
X122524520Y-138713720D01*
X122524520Y-139983720D02*
X121254520Y-139983720D01*
X127604520Y-139983720D02*
X128874520Y-139983720D01*
X122524520Y-136173720D02*
X127604520Y-136173720D01*
X127604520Y-136173720D02*
X127604520Y-138713720D01*
X127604520Y-138713720D02*
X122524520Y-138713720D01*
X122524520Y-138713720D02*
X122524520Y-136173720D01*
X122524520Y-137443720D02*
X121254520Y-137443720D01*
X127604520Y-137443720D02*
X128874520Y-137443720D01*
X122524520Y-133633720D02*
X127604520Y-133633720D01*
X127604520Y-133633720D02*
X127604520Y-136173720D01*
X127604520Y-136173720D02*
X122524520Y-136173720D01*
X122524520Y-136173720D02*
X122524520Y-133633720D01*
X122524520Y-134903720D02*
X121254520Y-134903720D01*
X127604520Y-134903720D02*
X128874520Y-134903720D01*
X122544840Y-128564640D02*
X127624840Y-128564640D01*
X127624840Y-128564640D02*
X127624840Y-131104640D01*
X127624840Y-131104640D02*
X122544840Y-131104640D01*
X122544840Y-131104640D02*
X122544840Y-128564640D01*
X122544840Y-129834640D02*
X121274840Y-129834640D01*
X127624840Y-129834640D02*
X128894840Y-129834640D01*
X100530660Y-127154940D02*
X95450660Y-127154940D01*
X95450660Y-127154940D02*
X95450660Y-124614940D01*
X95450660Y-124614940D02*
X100530660Y-124614940D01*
X100530660Y-124614940D02*
X100530660Y-127154940D01*
X100530660Y-125884940D02*
X101800660Y-125884940D01*
X95450660Y-125884940D02*
X94180660Y-125884940D01*
X122524520Y-126013720D02*
X127604520Y-126013720D01*
X127604520Y-126013720D02*
X127604520Y-128553720D01*
X127604520Y-128553720D02*
X122524520Y-128553720D01*
X122524520Y-128553720D02*
X122524520Y-126013720D01*
X122524520Y-127283720D02*
X121254520Y-127283720D01*
X127604520Y-127283720D02*
X128874520Y-127283720D01*
X122524520Y-123473720D02*
X127604520Y-123473720D01*
X127604520Y-123473720D02*
X127604520Y-126013720D01*
X127604520Y-126013720D02*
X122524520Y-126013720D01*
X122524520Y-126013720D02*
X122524520Y-123473720D01*
X122524520Y-124743720D02*
X121254520Y-124743720D01*
X127604520Y-124743720D02*
X128874520Y-124743720D01*
X100530660Y-129694940D02*
X95450660Y-129694940D01*
X95450660Y-129694940D02*
X95450660Y-127154940D01*
X95450660Y-127154940D02*
X100530660Y-127154940D01*
X100530660Y-127154940D02*
X100530660Y-129694940D01*
X100530660Y-128424940D02*
X101800660Y-128424940D01*
X95450660Y-128424940D02*
X94180660Y-128424940D01*
X100530660Y-132234940D02*
X95450660Y-132234940D01*
X95450660Y-132234940D02*
X95450660Y-129694940D01*
X95450660Y-129694940D02*
X100530660Y-129694940D01*
X100530660Y-129694940D02*
X100530660Y-132234940D01*
X100530660Y-130964940D02*
X101800660Y-130964940D01*
X95450660Y-130964940D02*
X94180660Y-130964940D01*
X144393920Y-114913420D02*
X152093920Y-114913420D01*
X152093920Y-114913420D02*
X152093920Y-117613420D01*
X152093920Y-117613420D02*
X144393920Y-117613420D01*
X144393920Y-117613420D02*
X144393920Y-114913420D01*
X143028000Y-84460080D02*
X143028000Y-92160080D01*
X143028000Y-92160080D02*
X140328000Y-92160080D01*
X140328000Y-92160080D02*
X140328000Y-84460080D01*
X140328000Y-84460080D02*
X143028000Y-84460080D01*
X142262860Y-143049000D02*
X149962860Y-143049000D01*
X149962860Y-143049000D02*
X149962860Y-145749000D01*
X149962860Y-145749000D02*
X142262860Y-145749000D01*
X142262860Y-145749000D02*
X142262860Y-143049000D01*
X181085000Y-93392000D02*
X181085000Y-101092000D01*
X181085000Y-101092000D02*
X178385000Y-101092000D01*
X178385000Y-101092000D02*
X178385000Y-93392000D01*
X178385000Y-93392000D02*
X181085000Y-93392000D01*
X163938000Y-78431400D02*
X171638000Y-78431400D01*
X171638000Y-78431400D02*
X171638000Y-81131400D01*
X171638000Y-81131400D02*
X163938000Y-81131400D01*
X163938000Y-81131400D02*
X163938000Y-78431400D01*
X196526200Y-109998000D02*
X204226200Y-109998000D01*
X204226200Y-109998000D02*
X204226200Y-112698000D01*
X204226200Y-112698000D02*
X196526200Y-112698000D01*
X196526200Y-112698000D02*
X196526200Y-109998000D01*
X196580800Y-143246600D02*
X204280800Y-143246600D01*
X204280800Y-143246600D02*
X204280800Y-145946600D01*
X204280800Y-145946600D02*
X196580800Y-145946600D01*
X196580800Y-145946600D02*
X196580800Y-143246600D01*
X196399200Y-70501000D02*
X204099200Y-70501000D01*
X204099200Y-70501000D02*
X204099200Y-73201000D01*
X204099200Y-73201000D02*
X196399200Y-73201000D01*
X196399200Y-73201000D02*
X196399200Y-70501000D01*
X180397200Y-71096400D02*
X188097200Y-71096400D01*
X188097200Y-71096400D02*
X188097200Y-73796400D01*
X188097200Y-73796400D02*
X180397200Y-73796400D01*
X180397200Y-73796400D02*
X180397200Y-71096400D01*
X90412560Y-84400380D02*
X82712560Y-84400380D01*
X82712560Y-84400380D02*
X82712560Y-81700380D01*
X82712560Y-81700380D02*
X90412560Y-81700380D01*
X90412560Y-81700380D02*
X90412560Y-84400380D01*
X89802458Y-52334684D02*
X82102458Y-52334684D01*
X82102458Y-52334684D02*
X82102458Y-49634684D01*
X82102458Y-49634684D02*
X89802458Y-49634684D01*
X89802458Y-49634684D02*
X89802458Y-52334684D01*
X97220803Y-119250721D02*
X96887469Y-118774530D01*
X96649374Y-119250721D02*
X96649374Y-118250721D01*
X97030327Y-118250721D01*
X97125565Y-118298340D01*
X97173184Y-118345959D01*
X97220803Y-118441197D01*
X97220803Y-118584054D01*
X97173184Y-118679292D01*
X97125565Y-118726911D01*
X97030327Y-118774530D01*
X96649374Y-118774530D01*
X97601755Y-118345959D02*
X97649374Y-118298340D01*
X97744612Y-118250721D01*
X97982708Y-118250721D01*
X98077946Y-118298340D01*
X98125565Y-118345959D01*
X98173184Y-118441197D01*
X98173184Y-118536435D01*
X98125565Y-118679292D01*
X97554136Y-119250721D01*
X98173184Y-119250721D01*
X98792231Y-118250721D02*
X98887470Y-118250721D01*
X98982708Y-118298340D01*
X99030327Y-118345959D01*
X99077946Y-118441197D01*
X99125565Y-118631673D01*
X99125565Y-118869769D01*
X99077946Y-119060245D01*
X99030327Y-119155483D01*
X98982708Y-119203102D01*
X98887470Y-119250721D01*
X98792231Y-119250721D01*
X98696993Y-119203102D01*
X98649374Y-119155483D01*
X98601755Y-119060245D01*
X98554136Y-118869769D01*
X98554136Y-118631673D01*
X98601755Y-118441197D01*
X98649374Y-118345959D01*
X98696993Y-118298340D01*
X98792231Y-118250721D01*
X97347803Y-124356121D02*
X97014469Y-123879930D01*
X96776374Y-124356121D02*
X96776374Y-123356121D01*
X97157327Y-123356121D01*
X97252565Y-123403740D01*
X97300184Y-123451359D01*
X97347803Y-123546597D01*
X97347803Y-123689454D01*
X97300184Y-123784692D01*
X97252565Y-123832311D01*
X97157327Y-123879930D01*
X96776374Y-123879930D01*
X98300184Y-124356121D02*
X97728755Y-124356121D01*
X98014469Y-124356121D02*
X98014469Y-123356121D01*
X97919231Y-123498978D01*
X97823993Y-123594216D01*
X97728755Y-123641835D01*
X99157327Y-123689454D02*
X99157327Y-124356121D01*
X98919231Y-123308502D02*
X98681136Y-124022788D01*
X99300184Y-124022788D01*
X97322403Y-121765321D02*
X96989069Y-121289130D01*
X96750974Y-121765321D02*
X96750974Y-120765321D01*
X97131927Y-120765321D01*
X97227165Y-120812940D01*
X97274784Y-120860559D01*
X97322403Y-120955797D01*
X97322403Y-121098654D01*
X97274784Y-121193892D01*
X97227165Y-121241511D01*
X97131927Y-121289130D01*
X96750974Y-121289130D01*
X98274784Y-121765321D02*
X97703355Y-121765321D01*
X97989069Y-121765321D02*
X97989069Y-120765321D01*
X97893831Y-120908178D01*
X97798593Y-121003416D01*
X97703355Y-121051035D01*
X99179546Y-120765321D02*
X98703355Y-120765321D01*
X98655736Y-121241511D01*
X98703355Y-121193892D01*
X98798593Y-121146273D01*
X99036689Y-121146273D01*
X99131927Y-121193892D01*
X99179546Y-121241511D01*
X99227165Y-121336750D01*
X99227165Y-121574845D01*
X99179546Y-121670083D01*
X99131927Y-121717702D01*
X99036689Y-121765321D01*
X98798593Y-121765321D01*
X98703355Y-121717702D01*
X98655736Y-121670083D01*
X140540835Y-61717941D02*
X140540835Y-62527465D01*
X140588454Y-62622703D01*
X140636073Y-62670322D01*
X140731311Y-62717941D01*
X140921788Y-62717941D01*
X141017026Y-62670322D01*
X141064645Y-62622703D01*
X141112264Y-62527465D01*
X141112264Y-61717941D01*
X141493216Y-61717941D02*
X142112264Y-61717941D01*
X141778930Y-62098893D01*
X141921788Y-62098893D01*
X142017026Y-62146512D01*
X142064645Y-62194131D01*
X142112264Y-62289370D01*
X142112264Y-62527465D01*
X142064645Y-62622703D01*
X142017026Y-62670322D01*
X141921788Y-62717941D01*
X141636073Y-62717941D01*
X141540835Y-62670322D01*
X141493216Y-62622703D01*
X146484395Y-92347801D02*
X146484395Y-93157325D01*
X146532014Y-93252563D01*
X146579633Y-93300182D01*
X146674871Y-93347801D01*
X146865348Y-93347801D01*
X146960586Y-93300182D01*
X147008205Y-93252563D01*
X147055824Y-93157325D01*
X147055824Y-92347801D01*
X147484395Y-92443039D02*
X147532014Y-92395420D01*
X147627252Y-92347801D01*
X147865348Y-92347801D01*
X147960586Y-92395420D01*
X148008205Y-92443039D01*
X148055824Y-92538277D01*
X148055824Y-92633515D01*
X148008205Y-92776372D01*
X147436776Y-93347801D01*
X148055824Y-93347801D01*
X144200935Y-120437661D02*
X144200935Y-121247185D01*
X144248554Y-121342423D01*
X144296173Y-121390042D01*
X144391411Y-121437661D01*
X144581888Y-121437661D01*
X144677126Y-121390042D01*
X144724745Y-121342423D01*
X144772364Y-121247185D01*
X144772364Y-120437661D01*
X145677126Y-120770994D02*
X145677126Y-121437661D01*
X145439030Y-120390042D02*
X145200935Y-121104328D01*
X145819983Y-121104328D01*
X119500282Y-123342305D02*
X119547901Y-123199448D01*
X119547901Y-122961352D01*
X119500282Y-122866114D01*
X119452663Y-122818495D01*
X119357425Y-122770876D01*
X119262187Y-122770876D01*
X119166949Y-122818495D01*
X119119330Y-122866114D01*
X119071710Y-122961352D01*
X119024091Y-123151829D01*
X118976472Y-123247067D01*
X118928853Y-123294686D01*
X118833615Y-123342305D01*
X118738377Y-123342305D01*
X118643139Y-123294686D01*
X118595520Y-123247067D01*
X118547901Y-123151829D01*
X118547901Y-122913733D01*
X118595520Y-122770876D01*
X118643139Y-122389924D02*
X118595520Y-122342305D01*
X118547901Y-122247067D01*
X118547901Y-122008971D01*
X118595520Y-121913733D01*
X118643139Y-121866114D01*
X118738377Y-121818495D01*
X118833615Y-121818495D01*
X118976472Y-121866114D01*
X119547901Y-122437543D01*
X119547901Y-121818495D01*
X104605722Y-142529465D02*
X104653341Y-142386608D01*
X104653341Y-142148512D01*
X104605722Y-142053274D01*
X104558103Y-142005655D01*
X104462865Y-141958036D01*
X104367627Y-141958036D01*
X104272389Y-142005655D01*
X104224770Y-142053274D01*
X104177150Y-142148512D01*
X104129531Y-142338989D01*
X104081912Y-142434227D01*
X104034293Y-142481846D01*
X103939055Y-142529465D01*
X103843817Y-142529465D01*
X103748579Y-142481846D01*
X103700960Y-142434227D01*
X103653341Y-142338989D01*
X103653341Y-142100893D01*
X103700960Y-141958036D01*
X104653341Y-141005655D02*
X104653341Y-141577084D01*
X104653341Y-141291370D02*
X103653341Y-141291370D01*
X103796198Y-141386608D01*
X103891436Y-141481846D01*
X103939055Y-141577084D01*
X83183383Y-53220905D02*
X83183383Y-54030429D01*
X83231002Y-54125667D01*
X83278621Y-54173286D01*
X83373859Y-54220905D01*
X83564336Y-54220905D01*
X83659574Y-54173286D01*
X83707193Y-54125667D01*
X83754812Y-54030429D01*
X83754812Y-53220905D01*
X84754812Y-54220905D02*
X84183383Y-54220905D01*
X84469097Y-54220905D02*
X84469097Y-53220905D01*
X84373859Y-53363762D01*
X84278621Y-53459000D01*
X84183383Y-53506619D01*
X85135764Y-53316143D02*
X85183383Y-53268524D01*
X85278621Y-53220905D01*
X85516717Y-53220905D01*
X85611955Y-53268524D01*
X85659574Y-53316143D01*
X85707193Y-53411381D01*
X85707193Y-53506619D01*
X85659574Y-53649476D01*
X85088145Y-54220905D01*
X85707193Y-54220905D01*
X107122482Y-89086792D02*
X107932006Y-89086792D01*
X108027244Y-89039173D01*
X108074863Y-88991554D01*
X108122482Y-88896316D01*
X108122482Y-88705839D01*
X108074863Y-88610601D01*
X108027244Y-88562982D01*
X107932006Y-88515363D01*
X107122482Y-88515363D01*
X108122482Y-87515363D02*
X108122482Y-88086792D01*
X108122482Y-87801078D02*
X107122482Y-87801078D01*
X107265339Y-87896316D01*
X107360577Y-87991554D01*
X107408196Y-88086792D01*
X108122482Y-86562982D02*
X108122482Y-87134411D01*
X108122482Y-86848697D02*
X107122482Y-86848697D01*
X107265339Y-86943935D01*
X107360577Y-87039173D01*
X107408196Y-87134411D01*
X106504341Y-79104715D02*
X105504341Y-79104715D01*
X105504341Y-78723762D01*
X105551960Y-78628524D01*
X105599579Y-78580905D01*
X105694817Y-78533286D01*
X105837674Y-78533286D01*
X105932912Y-78580905D01*
X105980531Y-78628524D01*
X106028150Y-78723762D01*
X106028150Y-79104715D01*
X105837674Y-77676143D02*
X106504341Y-77676143D01*
X105456722Y-77914239D02*
X106171008Y-78152334D01*
X106171008Y-77533286D01*
X111238601Y-64964155D02*
X110238601Y-64964155D01*
X110238601Y-64583202D01*
X110286220Y-64487964D01*
X110333839Y-64440345D01*
X110429077Y-64392726D01*
X110571934Y-64392726D01*
X110667172Y-64440345D01*
X110714791Y-64487964D01*
X110762410Y-64583202D01*
X110762410Y-64964155D01*
X110333839Y-64011774D02*
X110286220Y-63964155D01*
X110238601Y-63868917D01*
X110238601Y-63630821D01*
X110286220Y-63535583D01*
X110333839Y-63487964D01*
X110429077Y-63440345D01*
X110524315Y-63440345D01*
X110667172Y-63487964D01*
X111238601Y-64059393D01*
X111238601Y-63440345D01*
X113073283Y-51522891D02*
X113073283Y-52737177D01*
X113144711Y-52880034D01*
X113216140Y-52951463D01*
X113358997Y-53022891D01*
X113644711Y-53022891D01*
X113787569Y-52951463D01*
X113858997Y-52880034D01*
X113930426Y-52737177D01*
X113930426Y-51522891D01*
X115430426Y-53022891D02*
X114573283Y-53022891D01*
X115001855Y-53022891D02*
X115001855Y-51522891D01*
X114858998Y-51737177D01*
X114716140Y-51880034D01*
X114573283Y-51951463D01*
X84422201Y-139127526D02*
X83946010Y-139460860D01*
X84422201Y-139698955D02*
X83422201Y-139698955D01*
X83422201Y-139318002D01*
X83469820Y-139222764D01*
X83517439Y-139175145D01*
X83612677Y-139127526D01*
X83755534Y-139127526D01*
X83850772Y-139175145D01*
X83898391Y-139222764D01*
X83946010Y-139318002D01*
X83946010Y-139698955D01*
X83517439Y-138746574D02*
X83469820Y-138698955D01*
X83422201Y-138603717D01*
X83422201Y-138365621D01*
X83469820Y-138270383D01*
X83517439Y-138222764D01*
X83612677Y-138175145D01*
X83707915Y-138175145D01*
X83850772Y-138222764D01*
X84422201Y-138794193D01*
X84422201Y-138175145D01*
X162062295Y-50404781D02*
X162062295Y-51214305D01*
X162109914Y-51309543D01*
X162157533Y-51357162D01*
X162252771Y-51404781D01*
X162443248Y-51404781D01*
X162538486Y-51357162D01*
X162586105Y-51309543D01*
X162633724Y-51214305D01*
X162633724Y-50404781D01*
X163538486Y-50404781D02*
X163348009Y-50404781D01*
X163252771Y-50452400D01*
X163205152Y-50500019D01*
X163109914Y-50642876D01*
X163062295Y-50833352D01*
X163062295Y-51214305D01*
X163109914Y-51309543D01*
X163157533Y-51357162D01*
X163252771Y-51404781D01*
X163443248Y-51404781D01*
X163538486Y-51357162D01*
X163586105Y-51309543D01*
X163633724Y-51214305D01*
X163633724Y-50976210D01*
X163586105Y-50880971D01*
X163538486Y-50833352D01*
X163443248Y-50785733D01*
X163252771Y-50785733D01*
X163157533Y-50833352D01*
X163109914Y-50880971D01*
X163062295Y-50976210D01*
X217251581Y-99188495D02*
X216251581Y-99188495D01*
X216251581Y-98807542D01*
X216299200Y-98712304D01*
X216346819Y-98664685D01*
X216442057Y-98617066D01*
X216584914Y-98617066D01*
X216680152Y-98664685D01*
X216727771Y-98712304D01*
X216775390Y-98807542D01*
X216775390Y-99188495D01*
X217251581Y-97664685D02*
X217251581Y-98236114D01*
X217251581Y-97950400D02*
X216251581Y-97950400D01*
X216394438Y-98045638D01*
X216489676Y-98140876D01*
X216537295Y-98236114D01*
X192737380Y-59131666D02*
X192261189Y-59465000D01*
X192737380Y-59703095D02*
X191737380Y-59703095D01*
X191737380Y-59322142D01*
X191784999Y-59226904D01*
X191832618Y-59179285D01*
X191927856Y-59131666D01*
X192070713Y-59131666D01*
X192165951Y-59179285D01*
X192213570Y-59226904D01*
X192261189Y-59322142D01*
X192261189Y-59703095D01*
X192737380Y-58179285D02*
X192737380Y-58750714D01*
X192737380Y-58465000D02*
X191737380Y-58465000D01*
X191880237Y-58560238D01*
X191975475Y-58655476D01*
X192023094Y-58750714D01*
X198358895Y-50379381D02*
X198358895Y-51188905D01*
X198406514Y-51284143D01*
X198454133Y-51331762D01*
X198549371Y-51379381D01*
X198739848Y-51379381D01*
X198835086Y-51331762D01*
X198882705Y-51284143D01*
X198930324Y-51188905D01*
X198930324Y-50379381D01*
X199454133Y-51379381D02*
X199644609Y-51379381D01*
X199739848Y-51331762D01*
X199787467Y-51284143D01*
X199882705Y-51141286D01*
X199930324Y-50950810D01*
X199930324Y-50569857D01*
X199882705Y-50474619D01*
X199835086Y-50427000D01*
X199739848Y-50379381D01*
X199549371Y-50379381D01*
X199454133Y-50427000D01*
X199406514Y-50474619D01*
X199358895Y-50569857D01*
X199358895Y-50807952D01*
X199406514Y-50903190D01*
X199454133Y-50950810D01*
X199549371Y-50998429D01*
X199739848Y-50998429D01*
X199835086Y-50950810D01*
X199882705Y-50903190D01*
X199930324Y-50807952D01*
X182221025Y-50343821D02*
X182221025Y-51153345D01*
X182268644Y-51248583D01*
X182316263Y-51296202D01*
X182411501Y-51343821D01*
X182601978Y-51343821D01*
X182697216Y-51296202D01*
X182744835Y-51248583D01*
X182792454Y-51153345D01*
X182792454Y-50343821D01*
X183792454Y-51343821D02*
X183221025Y-51343821D01*
X183506739Y-51343821D02*
X183506739Y-50343821D01*
X183411501Y-50486678D01*
X183316263Y-50581916D01*
X183221025Y-50629535D01*
X184411501Y-50343821D02*
X184506740Y-50343821D01*
X184601978Y-50391440D01*
X184649597Y-50439059D01*
X184697216Y-50534297D01*
X184744835Y-50724773D01*
X184744835Y-50962869D01*
X184697216Y-51153345D01*
X184649597Y-51248583D01*
X184601978Y-51296202D01*
X184506740Y-51343821D01*
X184411501Y-51343821D01*
X184316263Y-51296202D01*
X184268644Y-51248583D01*
X184221025Y-51153345D01*
X184173406Y-50962869D01*
X184173406Y-50724773D01*
X184221025Y-50534297D01*
X184268644Y-50439059D01*
X184316263Y-50391440D01*
X184411501Y-50343821D01*
X163256095Y-93076781D02*
X163256095Y-93886305D01*
X163303714Y-93981543D01*
X163351333Y-94029162D01*
X163446571Y-94076781D01*
X163637048Y-94076781D01*
X163732286Y-94029162D01*
X163779905Y-93981543D01*
X163827524Y-93886305D01*
X163827524Y-93076781D01*
X164779905Y-93076781D02*
X164303714Y-93076781D01*
X164256095Y-93552971D01*
X164303714Y-93505352D01*
X164398952Y-93457733D01*
X164637048Y-93457733D01*
X164732286Y-93505352D01*
X164779905Y-93552971D01*
X164827524Y-93648210D01*
X164827524Y-93886305D01*
X164779905Y-93981543D01*
X164732286Y-94029162D01*
X164637048Y-94076781D01*
X164398952Y-94076781D01*
X164303714Y-94029162D01*
X164256095Y-93981543D01*
X198282695Y-82256381D02*
X198282695Y-83065905D01*
X198330314Y-83161143D01*
X198377933Y-83208762D01*
X198473171Y-83256381D01*
X198663648Y-83256381D01*
X198758886Y-83208762D01*
X198806505Y-83161143D01*
X198854124Y-83065905D01*
X198854124Y-82256381D01*
X199235076Y-82256381D02*
X199901743Y-82256381D01*
X199473171Y-83256381D01*
X198485895Y-115530381D02*
X198485895Y-116339905D01*
X198533514Y-116435143D01*
X198581133Y-116482762D01*
X198676371Y-116530381D01*
X198866848Y-116530381D01*
X198962086Y-116482762D01*
X199009705Y-116435143D01*
X199057324Y-116339905D01*
X199057324Y-115530381D01*
X199676371Y-115958952D02*
X199581133Y-115911333D01*
X199533514Y-115863714D01*
X199485895Y-115768476D01*
X199485895Y-115720857D01*
X199533514Y-115625619D01*
X199581133Y-115578000D01*
X199676371Y-115530381D01*
X199866848Y-115530381D01*
X199962086Y-115578000D01*
X200009705Y-115625619D01*
X200057324Y-115720857D01*
X200057324Y-115768476D01*
X200009705Y-115863714D01*
X199962086Y-115911333D01*
X199866848Y-115958952D01*
X199676371Y-115958952D01*
X199581133Y-116006571D01*
X199533514Y-116054190D01*
X199485895Y-116149429D01*
X199485895Y-116339905D01*
X199533514Y-116435143D01*
X199581133Y-116482762D01*
X199676371Y-116530381D01*
X199866848Y-116530381D01*
X199962086Y-116482762D01*
X200009705Y-116435143D01*
X200057324Y-116339905D01*
X200057324Y-116149429D01*
X200009705Y-116054190D01*
X199962086Y-116006571D01*
X199866848Y-115958952D01*
X107549725Y-83274161D02*
X107549725Y-82274161D01*
X107930678Y-82274161D01*
X108025916Y-82321780D01*
X108073535Y-82369399D01*
X108121154Y-82464637D01*
X108121154Y-82607494D01*
X108073535Y-82702732D01*
X108025916Y-82750351D01*
X107930678Y-82797970D01*
X107549725Y-82797970D01*
X108454487Y-82274161D02*
X109073535Y-82274161D01*
X108740201Y-82655113D01*
X108883059Y-82655113D01*
X108978297Y-82702732D01*
X109025916Y-82750351D01*
X109073535Y-82845590D01*
X109073535Y-83083685D01*
X109025916Y-83178923D01*
X108978297Y-83226542D01*
X108883059Y-83274161D01*
X108597344Y-83274161D01*
X108502106Y-83226542D01*
X108454487Y-83178923D01*
X84422201Y-123439726D02*
X83946010Y-123773060D01*
X84422201Y-124011155D02*
X83422201Y-124011155D01*
X83422201Y-123630202D01*
X83469820Y-123534964D01*
X83517439Y-123487345D01*
X83612677Y-123439726D01*
X83755534Y-123439726D01*
X83850772Y-123487345D01*
X83898391Y-123534964D01*
X83946010Y-123630202D01*
X83946010Y-124011155D01*
X83422201Y-123106393D02*
X83422201Y-122487345D01*
X83803153Y-122820679D01*
X83803153Y-122677821D01*
X83850772Y-122582583D01*
X83898391Y-122534964D01*
X83993630Y-122487345D01*
X84231725Y-122487345D01*
X84326963Y-122534964D01*
X84374582Y-122582583D01*
X84422201Y-122677821D01*
X84422201Y-122963536D01*
X84374582Y-123058774D01*
X84326963Y-123106393D01*
X83096401Y-131059726D02*
X82620210Y-131393060D01*
X83096401Y-131631155D02*
X82096401Y-131631155D01*
X82096401Y-131250202D01*
X82144020Y-131154964D01*
X82191639Y-131107345D01*
X82286877Y-131059726D01*
X82429734Y-131059726D01*
X82524972Y-131107345D01*
X82572591Y-131154964D01*
X82620210Y-131250202D01*
X82620210Y-131631155D01*
X82429734Y-130202583D02*
X83096401Y-130202583D01*
X82048782Y-130440679D02*
X82763068Y-130678774D01*
X82763068Y-130059726D01*
X77912862Y-143547933D02*
X77960481Y-143405076D01*
X77960481Y-143166980D01*
X77912862Y-143071742D01*
X77865243Y-143024123D01*
X77770005Y-142976504D01*
X77674767Y-142976504D01*
X77579529Y-143024123D01*
X77531910Y-143071742D01*
X77484290Y-143166980D01*
X77436671Y-143357457D01*
X77389052Y-143452695D01*
X77341433Y-143500314D01*
X77246195Y-143547933D01*
X77150957Y-143547933D01*
X77055719Y-143500314D01*
X77008100Y-143452695D01*
X76960481Y-143357457D01*
X76960481Y-143119361D01*
X77008100Y-142976504D01*
X76960481Y-142643171D02*
X77960481Y-142405076D01*
X77246195Y-142214599D01*
X77960481Y-142024123D01*
X76960481Y-141786028D01*
X77960481Y-140881266D02*
X77960481Y-141452695D01*
X77960481Y-141166981D02*
X76960481Y-141166981D01*
X77103338Y-141262219D01*
X77198576Y-141357457D01*
X77246195Y-141452695D01*
X77780782Y-123285593D02*
X77828401Y-123142736D01*
X77828401Y-122904640D01*
X77780782Y-122809402D01*
X77733163Y-122761783D01*
X77637925Y-122714164D01*
X77542687Y-122714164D01*
X77447449Y-122761783D01*
X77399830Y-122809402D01*
X77352210Y-122904640D01*
X77304591Y-123095117D01*
X77256972Y-123190355D01*
X77209353Y-123237974D01*
X77114115Y-123285593D01*
X77018877Y-123285593D01*
X76923639Y-123237974D01*
X76876020Y-123190355D01*
X76828401Y-123095117D01*
X76828401Y-122857021D01*
X76876020Y-122714164D01*
X76828401Y-122380831D02*
X77828401Y-122142736D01*
X77114115Y-121952259D01*
X77828401Y-121761783D01*
X76828401Y-121523688D01*
X76923639Y-121190355D02*
X76876020Y-121142736D01*
X76828401Y-121047498D01*
X76828401Y-120809402D01*
X76876020Y-120714164D01*
X76923639Y-120666545D01*
X77018877Y-120618926D01*
X77114115Y-120618926D01*
X77256972Y-120666545D01*
X77828401Y-121237974D01*
X77828401Y-120618926D01*
X77780782Y-133445593D02*
X77828401Y-133302736D01*
X77828401Y-133064640D01*
X77780782Y-132969402D01*
X77733163Y-132921783D01*
X77637925Y-132874164D01*
X77542687Y-132874164D01*
X77447449Y-132921783D01*
X77399830Y-132969402D01*
X77352210Y-133064640D01*
X77304591Y-133255117D01*
X77256972Y-133350355D01*
X77209353Y-133397974D01*
X77114115Y-133445593D01*
X77018877Y-133445593D01*
X76923639Y-133397974D01*
X76876020Y-133350355D01*
X76828401Y-133255117D01*
X76828401Y-133017021D01*
X76876020Y-132874164D01*
X76828401Y-132540831D02*
X77828401Y-132302736D01*
X77114115Y-132112259D01*
X77828401Y-131921783D01*
X76828401Y-131683688D01*
X76828401Y-131397974D02*
X76828401Y-130778926D01*
X77209353Y-131112260D01*
X77209353Y-130969402D01*
X77256972Y-130874164D01*
X77304591Y-130826545D01*
X77399830Y-130778926D01*
X77637925Y-130778926D01*
X77733163Y-130826545D01*
X77780782Y-130874164D01*
X77828401Y-130969402D01*
X77828401Y-131255117D01*
X77780782Y-131350355D01*
X77733163Y-131397974D01*
X106529741Y-72772495D02*
X105529741Y-72772495D01*
X105529741Y-72391542D01*
X105577360Y-72296304D01*
X105624979Y-72248685D01*
X105720217Y-72201066D01*
X105863074Y-72201066D01*
X105958312Y-72248685D01*
X106005931Y-72296304D01*
X106053550Y-72391542D01*
X106053550Y-72772495D01*
X105529741Y-71296304D02*
X105529741Y-71772495D01*
X106005931Y-71820114D01*
X105958312Y-71772495D01*
X105910693Y-71677257D01*
X105910693Y-71439161D01*
X105958312Y-71343923D01*
X106005931Y-71296304D01*
X106101170Y-71248685D01*
X106339265Y-71248685D01*
X106434503Y-71296304D01*
X106482122Y-71343923D01*
X106529741Y-71439161D01*
X106529741Y-71677257D01*
X106482122Y-71772495D01*
X106434503Y-71820114D01*
X106476401Y-66384395D02*
X105476401Y-66384395D01*
X105476401Y-66003442D01*
X105524020Y-65908204D01*
X105571639Y-65860585D01*
X105666877Y-65812966D01*
X105809734Y-65812966D01*
X105904972Y-65860585D01*
X105952591Y-65908204D01*
X106000210Y-66003442D01*
X106000210Y-66384395D01*
X105476401Y-64955823D02*
X105476401Y-65146300D01*
X105524020Y-65241538D01*
X105571639Y-65289157D01*
X105714496Y-65384395D01*
X105904972Y-65432014D01*
X106285925Y-65432014D01*
X106381163Y-65384395D01*
X106428782Y-65336776D01*
X106476401Y-65241538D01*
X106476401Y-65051061D01*
X106428782Y-64955823D01*
X106381163Y-64908204D01*
X106285925Y-64860585D01*
X106047830Y-64860585D01*
X105952591Y-64908204D01*
X105904972Y-64955823D01*
X105857353Y-65051061D01*
X105857353Y-65241538D01*
X105904972Y-65336776D01*
X105952591Y-65384395D01*
X106047830Y-65432014D01*
X104071021Y-54131435D02*
X103071021Y-54131435D01*
X103071021Y-53750482D01*
X103118640Y-53655244D01*
X103166259Y-53607625D01*
X103261497Y-53560006D01*
X103404354Y-53560006D01*
X103499592Y-53607625D01*
X103547211Y-53655244D01*
X103594830Y-53750482D01*
X103594830Y-54131435D01*
X103071021Y-53226673D02*
X103071021Y-52560006D01*
X104071021Y-52988578D01*
X97829074Y-134498341D02*
X97495740Y-134022150D01*
X97257645Y-134498341D02*
X97257645Y-133498341D01*
X97638598Y-133498341D01*
X97733836Y-133545960D01*
X97781455Y-133593579D01*
X97829074Y-133688817D01*
X97829074Y-133831674D01*
X97781455Y-133926912D01*
X97733836Y-133974531D01*
X97638598Y-134022150D01*
X97257645Y-134022150D01*
X98733836Y-133498341D02*
X98257645Y-133498341D01*
X98210026Y-133974531D01*
X98257645Y-133926912D01*
X98352883Y-133879293D01*
X98590979Y-133879293D01*
X98686217Y-133926912D01*
X98733836Y-133974531D01*
X98781455Y-134069770D01*
X98781455Y-134307865D01*
X98733836Y-134403103D01*
X98686217Y-134450722D01*
X98590979Y-134498341D01*
X98352883Y-134498341D01*
X98257645Y-134450722D01*
X98210026Y-134403103D01*
X97829074Y-137038341D02*
X97495740Y-136562150D01*
X97257645Y-137038341D02*
X97257645Y-136038341D01*
X97638598Y-136038341D01*
X97733836Y-136085960D01*
X97781455Y-136133579D01*
X97829074Y-136228817D01*
X97829074Y-136371674D01*
X97781455Y-136466912D01*
X97733836Y-136514531D01*
X97638598Y-136562150D01*
X97257645Y-136562150D01*
X98686217Y-136038341D02*
X98495740Y-136038341D01*
X98400502Y-136085960D01*
X98352883Y-136133579D01*
X98257645Y-136276436D01*
X98210026Y-136466912D01*
X98210026Y-136847865D01*
X98257645Y-136943103D01*
X98305264Y-136990722D01*
X98400502Y-137038341D01*
X98590979Y-137038341D01*
X98686217Y-136990722D01*
X98733836Y-136943103D01*
X98781455Y-136847865D01*
X98781455Y-136609770D01*
X98733836Y-136514531D01*
X98686217Y-136466912D01*
X98590979Y-136419293D01*
X98400502Y-136419293D01*
X98305264Y-136466912D01*
X98257645Y-136514531D01*
X98210026Y-136609770D01*
X124948654Y-132260601D02*
X124615320Y-131784410D01*
X124377225Y-132260601D02*
X124377225Y-131260601D01*
X124758178Y-131260601D01*
X124853416Y-131308220D01*
X124901035Y-131355839D01*
X124948654Y-131451077D01*
X124948654Y-131593934D01*
X124901035Y-131689172D01*
X124853416Y-131736791D01*
X124758178Y-131784410D01*
X124377225Y-131784410D01*
X125281987Y-131260601D02*
X125948654Y-131260601D01*
X125520082Y-132260601D01*
X124902934Y-142412221D02*
X124569600Y-141936030D01*
X124331505Y-142412221D02*
X124331505Y-141412221D01*
X124712458Y-141412221D01*
X124807696Y-141459840D01*
X124855315Y-141507459D01*
X124902934Y-141602697D01*
X124902934Y-141745554D01*
X124855315Y-141840792D01*
X124807696Y-141888411D01*
X124712458Y-141936030D01*
X124331505Y-141936030D01*
X125474362Y-141840792D02*
X125379124Y-141793173D01*
X125331505Y-141745554D01*
X125283886Y-141650316D01*
X125283886Y-141602697D01*
X125331505Y-141507459D01*
X125379124Y-141459840D01*
X125474362Y-141412221D01*
X125664839Y-141412221D01*
X125760077Y-141459840D01*
X125807696Y-141507459D01*
X125855315Y-141602697D01*
X125855315Y-141650316D01*
X125807696Y-141745554D01*
X125760077Y-141793173D01*
X125664839Y-141840792D01*
X125474362Y-141840792D01*
X125379124Y-141888411D01*
X125331505Y-141936030D01*
X125283886Y-142031269D01*
X125283886Y-142221745D01*
X125331505Y-142316983D01*
X125379124Y-142364602D01*
X125474362Y-142412221D01*
X125664839Y-142412221D01*
X125760077Y-142364602D01*
X125807696Y-142316983D01*
X125855315Y-142221745D01*
X125855315Y-142031269D01*
X125807696Y-141936030D01*
X125760077Y-141888411D01*
X125664839Y-141840792D01*
X124890234Y-139910321D02*
X124556900Y-139434130D01*
X124318805Y-139910321D02*
X124318805Y-138910321D01*
X124699758Y-138910321D01*
X124794996Y-138957940D01*
X124842615Y-139005559D01*
X124890234Y-139100797D01*
X124890234Y-139243654D01*
X124842615Y-139338892D01*
X124794996Y-139386511D01*
X124699758Y-139434130D01*
X124318805Y-139434130D01*
X125366424Y-139910321D02*
X125556900Y-139910321D01*
X125652139Y-139862702D01*
X125699758Y-139815083D01*
X125794996Y-139672226D01*
X125842615Y-139481750D01*
X125842615Y-139100797D01*
X125794996Y-139005559D01*
X125747377Y-138957940D01*
X125652139Y-138910321D01*
X125461662Y-138910321D01*
X125366424Y-138957940D01*
X125318805Y-139005559D01*
X125271186Y-139100797D01*
X125271186Y-139338892D01*
X125318805Y-139434130D01*
X125366424Y-139481750D01*
X125461662Y-139529369D01*
X125652139Y-139529369D01*
X125747377Y-139481750D01*
X125794996Y-139434130D01*
X125842615Y-139338892D01*
X124424203Y-137266181D02*
X124090869Y-136789990D01*
X123852774Y-137266181D02*
X123852774Y-136266181D01*
X124233727Y-136266181D01*
X124328965Y-136313800D01*
X124376584Y-136361419D01*
X124424203Y-136456657D01*
X124424203Y-136599514D01*
X124376584Y-136694752D01*
X124328965Y-136742371D01*
X124233727Y-136789990D01*
X123852774Y-136789990D01*
X125376584Y-137266181D02*
X124805155Y-137266181D01*
X125090869Y-137266181D02*
X125090869Y-136266181D01*
X124995631Y-136409038D01*
X124900393Y-136504276D01*
X124805155Y-136551895D01*
X125995631Y-136266181D02*
X126090870Y-136266181D01*
X126186108Y-136313800D01*
X126233727Y-136361419D01*
X126281346Y-136456657D01*
X126328965Y-136647133D01*
X126328965Y-136885229D01*
X126281346Y-137075705D01*
X126233727Y-137170943D01*
X126186108Y-137218562D01*
X126090870Y-137266181D01*
X125995631Y-137266181D01*
X125900393Y-137218562D01*
X125852774Y-137170943D01*
X125805155Y-137075705D01*
X125757536Y-136885229D01*
X125757536Y-136647133D01*
X125805155Y-136456657D01*
X125852774Y-136361419D01*
X125900393Y-136313800D01*
X125995631Y-136266181D01*
X124320063Y-134759201D02*
X123986729Y-134283010D01*
X123748634Y-134759201D02*
X123748634Y-133759201D01*
X124129587Y-133759201D01*
X124224825Y-133806820D01*
X124272444Y-133854439D01*
X124320063Y-133949677D01*
X124320063Y-134092534D01*
X124272444Y-134187772D01*
X124224825Y-134235391D01*
X124129587Y-134283010D01*
X123748634Y-134283010D01*
X125272444Y-134759201D02*
X124701015Y-134759201D01*
X124986729Y-134759201D02*
X124986729Y-133759201D01*
X124891491Y-133902058D01*
X124796253Y-133997296D01*
X124701015Y-134044915D01*
X126224825Y-134759201D02*
X125653396Y-134759201D01*
X125939110Y-134759201D02*
X125939110Y-133759201D01*
X125843872Y-133902058D01*
X125748634Y-133997296D01*
X125653396Y-134044915D01*
X124408963Y-129702821D02*
X124075629Y-129226630D01*
X123837534Y-129702821D02*
X123837534Y-128702821D01*
X124218487Y-128702821D01*
X124313725Y-128750440D01*
X124361344Y-128798059D01*
X124408963Y-128893297D01*
X124408963Y-129036154D01*
X124361344Y-129131392D01*
X124313725Y-129179011D01*
X124218487Y-129226630D01*
X123837534Y-129226630D01*
X125361344Y-129702821D02*
X124789915Y-129702821D01*
X125075629Y-129702821D02*
X125075629Y-128702821D01*
X124980391Y-128845678D01*
X124885153Y-128940916D01*
X124789915Y-128988535D01*
X125742296Y-128798059D02*
X125789915Y-128750440D01*
X125885153Y-128702821D01*
X126123249Y-128702821D01*
X126218487Y-128750440D01*
X126266106Y-128798059D01*
X126313725Y-128893297D01*
X126313725Y-128988535D01*
X126266106Y-129131392D01*
X125694677Y-129702821D01*
X126313725Y-129702821D01*
X97297003Y-126870721D02*
X96963669Y-126394530D01*
X96725574Y-126870721D02*
X96725574Y-125870721D01*
X97106527Y-125870721D01*
X97201765Y-125918340D01*
X97249384Y-125965959D01*
X97297003Y-126061197D01*
X97297003Y-126204054D01*
X97249384Y-126299292D01*
X97201765Y-126346911D01*
X97106527Y-126394530D01*
X96725574Y-126394530D01*
X98249384Y-126870721D02*
X97677955Y-126870721D01*
X97963669Y-126870721D02*
X97963669Y-125870721D01*
X97868431Y-126013578D01*
X97773193Y-126108816D01*
X97677955Y-126156435D01*
X98582717Y-125870721D02*
X99201765Y-125870721D01*
X98868431Y-126251673D01*
X99011289Y-126251673D01*
X99106527Y-126299292D01*
X99154146Y-126346911D01*
X99201765Y-126442150D01*
X99201765Y-126680245D01*
X99154146Y-126775483D01*
X99106527Y-126823102D01*
X99011289Y-126870721D01*
X98725574Y-126870721D01*
X98630336Y-126823102D01*
X98582717Y-126775483D01*
X124599463Y-127228101D02*
X124266129Y-126751910D01*
X124028034Y-127228101D02*
X124028034Y-126228101D01*
X124408987Y-126228101D01*
X124504225Y-126275720D01*
X124551844Y-126323339D01*
X124599463Y-126418577D01*
X124599463Y-126561434D01*
X124551844Y-126656672D01*
X124504225Y-126704291D01*
X124408987Y-126751910D01*
X124028034Y-126751910D01*
X125551844Y-127228101D02*
X124980415Y-127228101D01*
X125266129Y-127228101D02*
X125266129Y-126228101D01*
X125170891Y-126370958D01*
X125075653Y-126466196D01*
X124980415Y-126513815D01*
X126408987Y-126228101D02*
X126218510Y-126228101D01*
X126123272Y-126275720D01*
X126075653Y-126323339D01*
X125980415Y-126466196D01*
X125932796Y-126656672D01*
X125932796Y-127037625D01*
X125980415Y-127132863D01*
X126028034Y-127180482D01*
X126123272Y-127228101D01*
X126313749Y-127228101D01*
X126408987Y-127180482D01*
X126456606Y-127132863D01*
X126504225Y-127037625D01*
X126504225Y-126799530D01*
X126456606Y-126704291D01*
X126408987Y-126656672D01*
X126313749Y-126609053D01*
X126123272Y-126609053D01*
X126028034Y-126656672D01*
X125980415Y-126704291D01*
X125932796Y-126799530D01*
X124497863Y-124662701D02*
X124164529Y-124186510D01*
X123926434Y-124662701D02*
X123926434Y-123662701D01*
X124307387Y-123662701D01*
X124402625Y-123710320D01*
X124450244Y-123757939D01*
X124497863Y-123853177D01*
X124497863Y-123996034D01*
X124450244Y-124091272D01*
X124402625Y-124138891D01*
X124307387Y-124186510D01*
X123926434Y-124186510D01*
X125450244Y-124662701D02*
X124878815Y-124662701D01*
X125164529Y-124662701D02*
X125164529Y-123662701D01*
X125069291Y-123805558D01*
X124974053Y-123900796D01*
X124878815Y-123948415D01*
X125783577Y-123662701D02*
X126450244Y-123662701D01*
X126021672Y-124662701D01*
X97347803Y-129410721D02*
X97014469Y-128934530D01*
X96776374Y-129410721D02*
X96776374Y-128410721D01*
X97157327Y-128410721D01*
X97252565Y-128458340D01*
X97300184Y-128505959D01*
X97347803Y-128601197D01*
X97347803Y-128744054D01*
X97300184Y-128839292D01*
X97252565Y-128886911D01*
X97157327Y-128934530D01*
X96776374Y-128934530D01*
X98300184Y-129410721D02*
X97728755Y-129410721D01*
X98014469Y-129410721D02*
X98014469Y-128410721D01*
X97919231Y-128553578D01*
X97823993Y-128648816D01*
X97728755Y-128696435D01*
X98871612Y-128839292D02*
X98776374Y-128791673D01*
X98728755Y-128744054D01*
X98681136Y-128648816D01*
X98681136Y-128601197D01*
X98728755Y-128505959D01*
X98776374Y-128458340D01*
X98871612Y-128410721D01*
X99062089Y-128410721D01*
X99157327Y-128458340D01*
X99204946Y-128505959D01*
X99252565Y-128601197D01*
X99252565Y-128648816D01*
X99204946Y-128744054D01*
X99157327Y-128791673D01*
X99062089Y-128839292D01*
X98871612Y-128839292D01*
X98776374Y-128886911D01*
X98728755Y-128934530D01*
X98681136Y-129029769D01*
X98681136Y-129220245D01*
X98728755Y-129315483D01*
X98776374Y-129363102D01*
X98871612Y-129410721D01*
X99062089Y-129410721D01*
X99157327Y-129363102D01*
X99204946Y-129315483D01*
X99252565Y-129220245D01*
X99252565Y-129029769D01*
X99204946Y-128934530D01*
X99157327Y-128886911D01*
X99062089Y-128839292D01*
X97347803Y-131976121D02*
X97014469Y-131499930D01*
X96776374Y-131976121D02*
X96776374Y-130976121D01*
X97157327Y-130976121D01*
X97252565Y-131023740D01*
X97300184Y-131071359D01*
X97347803Y-131166597D01*
X97347803Y-131309454D01*
X97300184Y-131404692D01*
X97252565Y-131452311D01*
X97157327Y-131499930D01*
X96776374Y-131499930D01*
X98300184Y-131976121D02*
X97728755Y-131976121D01*
X98014469Y-131976121D02*
X98014469Y-130976121D01*
X97919231Y-131118978D01*
X97823993Y-131214216D01*
X97728755Y-131261835D01*
X98776374Y-131976121D02*
X98966850Y-131976121D01*
X99062089Y-131928502D01*
X99109708Y-131880883D01*
X99204946Y-131738026D01*
X99252565Y-131547550D01*
X99252565Y-131166597D01*
X99204946Y-131071359D01*
X99157327Y-131023740D01*
X99062089Y-130976121D01*
X98871612Y-130976121D01*
X98776374Y-131023740D01*
X98728755Y-131071359D01*
X98681136Y-131166597D01*
X98681136Y-131404692D01*
X98728755Y-131499930D01*
X98776374Y-131547550D01*
X98871612Y-131595169D01*
X99062089Y-131595169D01*
X99157327Y-131547550D01*
X99204946Y-131499930D01*
X99252565Y-131404692D01*
X147494914Y-116013503D02*
X147447295Y-116061122D01*
X147304438Y-116108741D01*
X147209200Y-116108741D01*
X147066342Y-116061122D01*
X146971104Y-115965884D01*
X146923485Y-115870646D01*
X146875866Y-115680170D01*
X146875866Y-115537312D01*
X146923485Y-115346836D01*
X146971104Y-115251598D01*
X147066342Y-115156360D01*
X147209200Y-115108741D01*
X147304438Y-115108741D01*
X147447295Y-115156360D01*
X147494914Y-115203979D01*
X148447295Y-116108741D02*
X147875866Y-116108741D01*
X148161580Y-116108741D02*
X148161580Y-115108741D01*
X148066342Y-115251598D01*
X147971104Y-115346836D01*
X147875866Y-115394455D01*
X142654383Y-87917266D02*
X142702002Y-87964885D01*
X142749621Y-88107742D01*
X142749621Y-88202980D01*
X142702002Y-88345838D01*
X142606764Y-88441076D01*
X142511526Y-88488695D01*
X142321050Y-88536314D01*
X142178192Y-88536314D01*
X141987716Y-88488695D01*
X141892478Y-88441076D01*
X141797240Y-88345838D01*
X141749621Y-88202980D01*
X141749621Y-88107742D01*
X141797240Y-87964885D01*
X141844859Y-87917266D01*
X141844859Y-87536314D02*
X141797240Y-87488695D01*
X141749621Y-87393457D01*
X141749621Y-87155361D01*
X141797240Y-87060123D01*
X141844859Y-87012504D01*
X141940097Y-86964885D01*
X142035335Y-86964885D01*
X142178192Y-87012504D01*
X142749621Y-87583933D01*
X142749621Y-86964885D01*
X145340994Y-144154683D02*
X145293375Y-144202302D01*
X145150518Y-144249921D01*
X145055280Y-144249921D01*
X144912422Y-144202302D01*
X144817184Y-144107064D01*
X144769565Y-144011826D01*
X144721946Y-143821350D01*
X144721946Y-143678492D01*
X144769565Y-143488016D01*
X144817184Y-143392778D01*
X144912422Y-143297540D01*
X145055280Y-143249921D01*
X145150518Y-143249921D01*
X145293375Y-143297540D01*
X145340994Y-143345159D01*
X145674327Y-143249921D02*
X146293375Y-143249921D01*
X145960041Y-143630873D01*
X146102899Y-143630873D01*
X146198137Y-143678492D01*
X146245756Y-143726111D01*
X146293375Y-143821350D01*
X146293375Y-144059445D01*
X146245756Y-144154683D01*
X146198137Y-144202302D01*
X146102899Y-144249921D01*
X145817184Y-144249921D01*
X145721946Y-144202302D01*
X145674327Y-144154683D01*
X179531283Y-98017626D02*
X179578902Y-98065245D01*
X179626521Y-98208102D01*
X179626521Y-98303340D01*
X179578902Y-98446198D01*
X179483664Y-98541436D01*
X179388426Y-98589055D01*
X179197950Y-98636674D01*
X179055092Y-98636674D01*
X178864616Y-98589055D01*
X178769378Y-98541436D01*
X178674140Y-98446198D01*
X178626521Y-98303340D01*
X178626521Y-98208102D01*
X178674140Y-98065245D01*
X178721759Y-98017626D01*
X178959854Y-97160483D02*
X179626521Y-97160483D01*
X178578902Y-97398579D02*
X179293188Y-97636674D01*
X179293188Y-97017626D01*
X167082174Y-79539103D02*
X167034555Y-79586722D01*
X166891698Y-79634341D01*
X166796460Y-79634341D01*
X166653602Y-79586722D01*
X166558364Y-79491484D01*
X166510745Y-79396246D01*
X166463126Y-79205770D01*
X166463126Y-79062912D01*
X166510745Y-78872436D01*
X166558364Y-78777198D01*
X166653602Y-78681960D01*
X166796460Y-78634341D01*
X166891698Y-78634341D01*
X167034555Y-78681960D01*
X167082174Y-78729579D01*
X167986936Y-78634341D02*
X167510745Y-78634341D01*
X167463126Y-79110531D01*
X167510745Y-79062912D01*
X167605983Y-79015293D01*
X167844079Y-79015293D01*
X167939317Y-79062912D01*
X167986936Y-79110531D01*
X168034555Y-79205770D01*
X168034555Y-79443865D01*
X167986936Y-79539103D01*
X167939317Y-79586722D01*
X167844079Y-79634341D01*
X167605983Y-79634341D01*
X167510745Y-79586722D01*
X167463126Y-79539103D01*
X199596714Y-111090983D02*
X199549095Y-111138602D01*
X199406238Y-111186221D01*
X199311000Y-111186221D01*
X199168142Y-111138602D01*
X199072904Y-111043364D01*
X199025285Y-110948126D01*
X198977666Y-110757650D01*
X198977666Y-110614792D01*
X199025285Y-110424316D01*
X199072904Y-110329078D01*
X199168142Y-110233840D01*
X199311000Y-110186221D01*
X199406238Y-110186221D01*
X199549095Y-110233840D01*
X199596714Y-110281459D01*
X200453857Y-110186221D02*
X200263380Y-110186221D01*
X200168142Y-110233840D01*
X200120523Y-110281459D01*
X200025285Y-110424316D01*
X199977666Y-110614792D01*
X199977666Y-110995745D01*
X200025285Y-111090983D01*
X200072904Y-111138602D01*
X200168142Y-111186221D01*
X200358619Y-111186221D01*
X200453857Y-111138602D01*
X200501476Y-111090983D01*
X200549095Y-110995745D01*
X200549095Y-110757650D01*
X200501476Y-110662411D01*
X200453857Y-110614792D01*
X200358619Y-110567173D01*
X200168142Y-110567173D01*
X200072904Y-110614792D01*
X200025285Y-110662411D01*
X199977666Y-110757650D01*
X199677994Y-144398003D02*
X199630375Y-144445622D01*
X199487518Y-144493241D01*
X199392280Y-144493241D01*
X199249422Y-144445622D01*
X199154184Y-144350384D01*
X199106565Y-144255146D01*
X199058946Y-144064670D01*
X199058946Y-143921812D01*
X199106565Y-143731336D01*
X199154184Y-143636098D01*
X199249422Y-143540860D01*
X199392280Y-143493241D01*
X199487518Y-143493241D01*
X199630375Y-143540860D01*
X199677994Y-143588479D01*
X200011327Y-143493241D02*
X200677994Y-143493241D01*
X200249422Y-144493241D01*
X199502734Y-71614303D02*
X199455115Y-71661922D01*
X199312258Y-71709541D01*
X199217020Y-71709541D01*
X199074162Y-71661922D01*
X198978924Y-71566684D01*
X198931305Y-71471446D01*
X198883686Y-71280970D01*
X198883686Y-71138112D01*
X198931305Y-70947636D01*
X198978924Y-70852398D01*
X199074162Y-70757160D01*
X199217020Y-70709541D01*
X199312258Y-70709541D01*
X199455115Y-70757160D01*
X199502734Y-70804779D01*
X200074162Y-71138112D02*
X199978924Y-71090493D01*
X199931305Y-71042874D01*
X199883686Y-70947636D01*
X199883686Y-70900017D01*
X199931305Y-70804779D01*
X199978924Y-70757160D01*
X200074162Y-70709541D01*
X200264639Y-70709541D01*
X200359877Y-70757160D01*
X200407496Y-70804779D01*
X200455115Y-70900017D01*
X200455115Y-70947636D01*
X200407496Y-71042874D01*
X200359877Y-71090493D01*
X200264639Y-71138112D01*
X200074162Y-71138112D01*
X199978924Y-71185731D01*
X199931305Y-71233350D01*
X199883686Y-71328589D01*
X199883686Y-71519065D01*
X199931305Y-71614303D01*
X199978924Y-71661922D01*
X200074162Y-71709541D01*
X200264639Y-71709541D01*
X200359877Y-71661922D01*
X200407496Y-71614303D01*
X200455115Y-71519065D01*
X200455115Y-71328589D01*
X200407496Y-71233350D01*
X200359877Y-71185731D01*
X200264639Y-71138112D01*
X183495654Y-72178183D02*
X183448035Y-72225802D01*
X183305178Y-72273421D01*
X183209940Y-72273421D01*
X183067082Y-72225802D01*
X182971844Y-72130564D01*
X182924225Y-72035326D01*
X182876606Y-71844850D01*
X182876606Y-71701992D01*
X182924225Y-71511516D01*
X182971844Y-71416278D01*
X183067082Y-71321040D01*
X183209940Y-71273421D01*
X183305178Y-71273421D01*
X183448035Y-71321040D01*
X183495654Y-71368659D01*
X183971844Y-72273421D02*
X184162320Y-72273421D01*
X184257559Y-72225802D01*
X184305178Y-72178183D01*
X184400416Y-72035326D01*
X184448035Y-71844850D01*
X184448035Y-71463897D01*
X184400416Y-71368659D01*
X184352797Y-71321040D01*
X184257559Y-71273421D01*
X184067082Y-71273421D01*
X183971844Y-71321040D01*
X183924225Y-71368659D01*
X183876606Y-71463897D01*
X183876606Y-71701992D01*
X183924225Y-71797230D01*
X183971844Y-71844850D01*
X184067082Y-71892469D01*
X184257559Y-71892469D01*
X184352797Y-71844850D01*
X184400416Y-71797230D01*
X184448035Y-71701992D01*
X86014789Y-83970309D02*
X85967170Y-84017928D01*
X85824313Y-84065547D01*
X85729075Y-84065547D01*
X85586217Y-84017928D01*
X85490979Y-83922690D01*
X85443360Y-83827452D01*
X85395741Y-83636976D01*
X85395741Y-83494118D01*
X85443360Y-83303642D01*
X85490979Y-83208404D01*
X85586217Y-83113166D01*
X85729075Y-83065547D01*
X85824313Y-83065547D01*
X85967170Y-83113166D01*
X86014789Y-83160785D01*
X86967170Y-84065547D02*
X86395741Y-84065547D01*
X86681455Y-84065547D02*
X86681455Y-83065547D01*
X86586217Y-83208404D01*
X86490979Y-83303642D01*
X86395741Y-83351261D01*
X87586217Y-83065547D02*
X87681456Y-83065547D01*
X87776694Y-83113166D01*
X87824313Y-83160785D01*
X87871932Y-83256023D01*
X87919551Y-83446499D01*
X87919551Y-83684595D01*
X87871932Y-83875071D01*
X87824313Y-83970309D01*
X87776694Y-84017928D01*
X87681456Y-84065547D01*
X87586217Y-84065547D01*
X87490979Y-84017928D01*
X87443360Y-83970309D01*
X87395741Y-83875071D01*
X87348122Y-83684595D01*
X87348122Y-83446499D01*
X87395741Y-83256023D01*
X87443360Y-83160785D01*
X87490979Y-83113166D01*
X87586217Y-83065547D01*
X85260201Y-51959567D02*
X85212582Y-52007186D01*
X85069725Y-52054805D01*
X84974487Y-52054805D01*
X84831629Y-52007186D01*
X84736391Y-51911948D01*
X84688772Y-51816710D01*
X84641153Y-51626234D01*
X84641153Y-51483376D01*
X84688772Y-51292900D01*
X84736391Y-51197662D01*
X84831629Y-51102424D01*
X84974487Y-51054805D01*
X85069725Y-51054805D01*
X85212582Y-51102424D01*
X85260201Y-51150043D01*
X86212582Y-52054805D02*
X85641153Y-52054805D01*
X85926867Y-52054805D02*
X85926867Y-51054805D01*
X85831629Y-51197662D01*
X85736391Y-51292900D01*
X85641153Y-51340519D01*
X87164963Y-52054805D02*
X86593534Y-52054805D01*
X86879248Y-52054805D02*
X86879248Y-51054805D01*
X86784010Y-51197662D01*
X86688772Y-51292900D01*
X86593534Y-51340519D01*
M02*
