M48
INCH,TZ
T1C0.031
T2C0.035
T3C0.039
T4C0.040
%
G90
G05
T1
X30276Y-33786
X30616Y-30118
X30679Y-31586
X31837Y-21769
X31837Y-22769
X31837Y-23769
X31837Y-24769
X31837Y-25769
X31837Y-26769
X31837Y-27769
X31837Y-28769
X32855Y-20073
X33033Y-31599
X33095Y-32697
X33229Y-36026
X33236Y-40268
X33262Y-33794
X33499Y-42539
X33550Y-41557
X34096Y-43322
X34802Y-33921
X34802Y-36921
X34808Y-44003
X34824Y-20073
X34830Y-30209
X34837Y-21769
X34837Y-22769
X34837Y-23769
X34837Y-24769
X34837Y-25769
X34837Y-26769
X34837Y-27769
X34837Y-28769
X35064Y-32697
X35802Y-33921
X35802Y-36921
X35880Y-28792
X35883Y-22777
X36113Y-32710
X36397Y-38685
X36601Y-30485
X36802Y-33921
X36802Y-36921
X36808Y-27458
X36816Y-24769
X37792Y-27458
X37800Y-25565
X37802Y-33921
X37802Y-36921
X38802Y-33921
X38802Y-36921
X39168Y-23782
X39170Y-27472
X39643Y-30485
X39802Y-33921
X39802Y-36921
X39802Y-37935
X39802Y-39494
X40491Y-32711
X40802Y-33921
X40802Y-36921
X41802Y-33921
X41802Y-36921
X41867Y-48478
X41867Y-51478
X41870Y-52668
X41870Y-55668
X42867Y-48478
X42867Y-51478
X42870Y-52668
X42870Y-55668
X43809Y-25906
X43823Y-35146
X43867Y-48478
X43867Y-51478
X43870Y-52668
X43870Y-55668
X44867Y-48478
X44867Y-51478
X44870Y-52668
X44870Y-55668
X45867Y-48478
X45867Y-51478
X45870Y-52668
X45870Y-55668
X45960Y-37579
X47229Y-42511
X48508Y-43234
X51013Y-37575
X51441Y-40509
X51880Y-38954
X51988Y-27110
X52331Y-43949
X52554Y-33488
X52555Y-31538
X53270Y-32253
X53272Y-28277
X53936Y-39340
X54146Y-30819
X54146Y-26130
X54688Y-42200
X54694Y-40398
X54722Y-36458
X55134Y-25130
X55134Y-26130
X55134Y-27130
X55134Y-28130
X55134Y-29130
X55134Y-30130
X55134Y-31130
X55134Y-32130
X55498Y-53290
X55517Y-49199
X55640Y-40120
X55652Y-42971
X55779Y-33783
X55779Y-35752
X55947Y-36811
X56341Y-42225
X56425Y-39137
X56486Y-46795
X56537Y-48198
X56537Y-49198
X56537Y-50198
X56537Y-51198
X56537Y-52198
X56537Y-53198
X56537Y-54198
X56537Y-55198
X56540Y-56850
X57313Y-34610
X57379Y-45773
X57380Y-37137
X57380Y-38137
X57380Y-39137
X57380Y-40137
X57380Y-41137
X57380Y-42137
X57380Y-43137
X57380Y-44137
X58068Y-46810
X58130Y-23575
X58134Y-25130
X58134Y-26130
X58134Y-27130
X58134Y-28130
X58134Y-29130
X58134Y-30130
X58134Y-31130
X58134Y-32130
X58509Y-56850
X59348Y-45773
X59537Y-48198
X59537Y-49198
X59537Y-50198
X59537Y-51198
X59537Y-52198
X59537Y-53198
X59537Y-54198
X59537Y-55198
X59897Y-22643
X59904Y-21265
X59937Y-33482
X60380Y-37137
X60380Y-38137
X60380Y-39137
X60380Y-40137
X60380Y-41137
X60380Y-42137
X60380Y-43137
X60380Y-44137
X60575Y-34231
X60634Y-48626
X60645Y-46101
X61067Y-49616
X61068Y-56840
X61348Y-34920
X61371Y-36312
X61853Y-48308
X61855Y-55210
X62074Y-35623
X62480Y-28347
X62542Y-49283
X62542Y-54210
X63524Y-20640
X63524Y-21640
X63524Y-22640
X63524Y-23640
X63524Y-24640
X63524Y-25640
X63524Y-26640
X63524Y-27640
X63524Y-28640
X63524Y-29640
X63524Y-37300
X63524Y-38300
X63524Y-39300
X63524Y-40300
X63524Y-41300
X63524Y-42300
X63524Y-43300
X63524Y-44300
X63524Y-45300
X63524Y-46300
X63524Y-47300
X63524Y-48300
X63524Y-49300
X63524Y-50300
X64096Y-31002
X65074Y-31410
X65750Y-33448
X66454Y-34136
X66524Y-20640
X66524Y-21640
X66524Y-22640
X66524Y-23640
X66524Y-24640
X66524Y-25640
X66524Y-26640
X66524Y-27640
X66524Y-28640
X66524Y-29640
X67043Y-31410
X67664Y-20660
X67693Y-34825
X67772Y-32722
X68754Y-19550
X69071Y-35623
X69524Y-37300
X69524Y-38300
X69524Y-39300
X69524Y-40300
X69524Y-41300
X69524Y-42300
X69524Y-43300
X69524Y-44300
X69524Y-45300
X69524Y-46300
X69524Y-47300
X69524Y-48300
X69524Y-49300
X69524Y-50300
X69983Y-32706
X70492Y-36312
X70744Y-45300
X70762Y-37300
X70762Y-39269
X70764Y-43320
X70786Y-28498
X70804Y-32685
X71163Y-40911
X71554Y-20620
X71554Y-21620
X71554Y-22620
X71554Y-23620
X71554Y-24620
X71554Y-25620
X71554Y-26620
X71554Y-27952
X71554Y-28522
X72060Y-32765
X72068Y-37300
X72728Y-42454
X73523Y-28522
X73852Y-41200
X73853Y-33279
X74554Y-20620
X74554Y-21620
X74554Y-22620
X74554Y-23620
X74554Y-24620
X74554Y-25620
X74554Y-26620
X74626Y-34245
X74640Y-36315
X74724Y-37300
X74724Y-41889
X74917Y-33281
X74933Y-28027
X75606Y-27309
X75606Y-28746
X75614Y-53969
X76274Y-25360
X76295Y-33279
X76337Y-42676
X76338Y-39633
X76383Y-23893
X76954Y-54790
X76984Y-36711
X77004Y-44072
X77854Y-20620
X77854Y-21620
X77854Y-22620
X77854Y-23620
X77854Y-24620
X77854Y-25620
X77854Y-26620
X77854Y-28288
X77884Y-33200
X77884Y-34200
X77884Y-35200
X77884Y-36200
X77884Y-37200
X77884Y-38200
X77884Y-39200
X77884Y-40200
X77884Y-41200
X77884Y-42200
X77904Y-44629
X77904Y-43838
X77926Y-56928
X77944Y-46280
X77944Y-47280
X77944Y-48280
X77944Y-49280
X77944Y-50280
X77944Y-51280
X77944Y-52280
X77944Y-53280
X77944Y-54280
X77944Y-55280
X79823Y-28288
X79873Y-43838
X79894Y-56928
X80854Y-20620
X80854Y-21620
X80854Y-22620
X80854Y-23620
X80854Y-24620
X80854Y-25620
X80854Y-26620
X80884Y-33200
X80884Y-34200
X80884Y-35200
X80884Y-36200
X80884Y-37200
X80884Y-38200
X80884Y-39200
X80884Y-40200
X80884Y-41200
X80884Y-42200
X80898Y-44629
X80944Y-46280
X80944Y-47280
X80944Y-48280
X80944Y-49280
X80944Y-50280
X80944Y-51280
X80944Y-52280
X80944Y-53280
X80944Y-54280
X80944Y-55280
X81862Y-34151
X81895Y-21929
X82270Y-51091
X82270Y-55157
X82319Y-43028
X82551Y-28116
X82551Y-29145
X82555Y-34851
X82630Y-35834
X82715Y-23369
X83071Y-26859
X83449Y-44361
X83465Y-28780
X83465Y-35230
X83465Y-36625
X83699Y-23371
X84154Y-27770
X84154Y-54469
T2
X29163Y-46513
X29163Y-49513
X29163Y-50513
X29163Y-53513
X29163Y-54513
X29163Y-57513
X31163Y-46513
X31163Y-49513
X31163Y-50513
X31163Y-53513
X31163Y-54513
X31163Y-57513
T3
X32323Y-49523
X32323Y-53523
X33273Y-46513
X33273Y-50513
X33273Y-52719
X33273Y-56719
X36579Y-46561
X36579Y-47561
X36579Y-48561
X36579Y-49561
X36579Y-50561
X36579Y-51561
X36579Y-52561
X36579Y-53561
X40579Y-46561
X40579Y-47561
X40579Y-48561
X40579Y-49561
X40579Y-50561
X40579Y-51561
X40579Y-52561
X40579Y-53561
X47238Y-49112
X47238Y-50112
X47238Y-53112
X47238Y-54112
X47238Y-55112
X47238Y-56112
X47246Y-51116
X47246Y-52110
X51238Y-49112
X51238Y-50112
X51238Y-53112
X51238Y-54112
X51238Y-55112
X51238Y-56112
X51246Y-51116
X51246Y-52110
X75694Y-20650
X75694Y-24650
T4
X40774Y-22125
X40774Y-23125
X40774Y-24500
X40774Y-25500
X40775Y-27025
X40775Y-28025
X40775Y-29485
X40775Y-30485
X42593Y-20089
X42593Y-21089
X42593Y-22089
X42593Y-23089
X42593Y-24089
X42593Y-25089
X42604Y-26595
X42604Y-27595
X42604Y-28595
X42604Y-29595
X42604Y-30595
X42604Y-31595
X44946Y-21602
X44946Y-22602
X44946Y-23602
X44946Y-24602
X44946Y-25602
X44946Y-26602
X44946Y-27602
X44946Y-28602
X44946Y-29602
X44946Y-30602
X44946Y-31602
X44946Y-32602
X44946Y-33602
X44946Y-34602
X44946Y-35602
X50946Y-21602
X50946Y-22602
X50946Y-23602
X50946Y-24602
X50946Y-25602
X50946Y-26602
X50946Y-27602
X50946Y-28602
X50946Y-29602
X50946Y-30602
X50946Y-31602
X50946Y-32602
X50946Y-33602
X50946Y-34602
X50946Y-35602
T0
M30
