G04 #@! TF.FileFunction,Soldermask,Bot*
%FSLAX46Y46*%
G04 Gerber Fmt 4.6, Leading zero omitted, Abs format (unit mm)*
G04 Created by KiCad (PCBNEW 4.0.1-stable) date Dienstag, 26. April 2016 14:06:35*
%MOMM*%
G01*
G04 APERTURE LIST*
%ADD10C,0.100000*%
%ADD11C,1.998980*%
%ADD12O,2.300000X1.600000*%
%ADD13O,1.600000X2.300000*%
%ADD14R,2.032000X2.032000*%
%ADD15O,2.032000X2.032000*%
%ADD16R,2.032000X1.727200*%
%ADD17O,2.032000X1.727200*%
%ADD18O,3.048000X1.524000*%
%ADD19R,14.000000X1.524000*%
%ADD20C,1.800000*%
%ADD21R,2.000000X2.000000*%
%ADD22C,2.000000*%
G04 APERTURE END LIST*
D10*
D11*
X103070660Y-118264940D03*
X92910660Y-118264940D03*
X103070660Y-123344940D03*
X92910660Y-123344940D03*
X103070660Y-120804940D03*
X92910660Y-120804940D03*
D12*
X147660400Y-81610200D03*
X147660400Y-79070200D03*
X147660400Y-76530200D03*
X147660400Y-73990200D03*
X147660400Y-71450200D03*
X147660400Y-68910200D03*
X147660400Y-66370200D03*
X147660400Y-63830200D03*
X140040400Y-63830200D03*
X140040400Y-66370200D03*
X140040400Y-68910200D03*
X140040400Y-71450200D03*
X140040400Y-73990200D03*
X140040400Y-76530200D03*
X140040400Y-79070200D03*
X140040400Y-81610200D03*
X153365200Y-112107980D03*
X153365200Y-109567980D03*
X153365200Y-107027980D03*
X153365200Y-104487980D03*
X153365200Y-101947980D03*
X153365200Y-99407980D03*
X153365200Y-96867980D03*
X153365200Y-94327980D03*
X145745200Y-94327980D03*
X145745200Y-96867980D03*
X145745200Y-99407980D03*
X145745200Y-101947980D03*
X145745200Y-104487980D03*
X145745200Y-107027980D03*
X145745200Y-109567980D03*
X145745200Y-112107980D03*
X151223980Y-140202920D03*
X151223980Y-137662920D03*
X151223980Y-135122920D03*
X151223980Y-132582920D03*
X151223980Y-130042920D03*
X151223980Y-127502920D03*
X151223980Y-124962920D03*
X151223980Y-122422920D03*
X143603980Y-122422920D03*
X143603980Y-124962920D03*
X143603980Y-127502920D03*
X143603980Y-130042920D03*
X143603980Y-132582920D03*
X143603980Y-135122920D03*
X143603980Y-137662920D03*
X143603980Y-140202920D03*
D13*
X106342180Y-130754120D03*
X108882180Y-130754120D03*
X111422180Y-130754120D03*
X113962180Y-130754120D03*
X116502180Y-130754120D03*
X116502180Y-123134120D03*
X113962180Y-123134120D03*
X111422180Y-123134120D03*
X108882180Y-123134120D03*
X106342180Y-123134120D03*
X106349800Y-141396720D03*
X108889800Y-141396720D03*
X111429800Y-141396720D03*
X113969800Y-141396720D03*
X116509800Y-141396720D03*
X116509800Y-133776720D03*
X113969800Y-133776720D03*
X111429800Y-133776720D03*
X108889800Y-133776720D03*
X106349800Y-133776720D03*
D12*
X80865478Y-55292524D03*
X80865478Y-57832524D03*
X80865478Y-60372524D03*
X80865478Y-62912524D03*
X80865478Y-65452524D03*
X80865478Y-67992524D03*
X80865478Y-70532524D03*
X80865478Y-73072524D03*
X88485478Y-73072524D03*
X88485478Y-70532524D03*
X88485478Y-67992524D03*
X88485478Y-65452524D03*
X88485478Y-62912524D03*
X88485478Y-60372524D03*
X88485478Y-57832524D03*
X88485478Y-55292524D03*
D13*
X88397080Y-93779340D03*
X90937080Y-93779340D03*
X93477080Y-93779340D03*
X96017080Y-93779340D03*
X98557080Y-93779340D03*
X101097080Y-93779340D03*
X103637080Y-93779340D03*
X106177080Y-93779340D03*
X106177080Y-86159340D03*
X103637080Y-86159340D03*
X101097080Y-86159340D03*
X98557080Y-86159340D03*
X96017080Y-86159340D03*
X93477080Y-86159340D03*
X90937080Y-86159340D03*
X88397080Y-86159340D03*
D14*
X103567840Y-77431900D03*
D15*
X103567840Y-74891900D03*
D16*
X108186220Y-63726060D03*
D17*
X108186220Y-61186060D03*
X108186220Y-58646060D03*
X108186220Y-56106060D03*
X108186220Y-53566060D03*
X108186220Y-51026060D03*
D18*
X129402840Y-90429080D03*
X129402840Y-87889080D03*
X129402840Y-85349080D03*
X129402840Y-82809080D03*
X129402840Y-80269080D03*
X129402840Y-77729080D03*
X129402840Y-75189080D03*
X129402840Y-72649080D03*
X129402840Y-70109080D03*
X129402840Y-67569080D03*
X129402840Y-65029080D03*
X129402840Y-62489080D03*
X129402840Y-59949080D03*
X129402840Y-57409080D03*
X129402840Y-54869080D03*
X114162840Y-54869080D03*
X114162840Y-57409080D03*
X114162840Y-59949080D03*
X114162840Y-62489080D03*
X114162840Y-65029080D03*
X114162840Y-67569080D03*
X114162840Y-70109080D03*
X114162840Y-72649080D03*
X114162840Y-75189080D03*
X114162840Y-77729080D03*
X114162840Y-80269080D03*
X114162840Y-82809080D03*
X114162840Y-85349080D03*
X114162840Y-87889080D03*
X114162840Y-90429080D03*
D11*
X84513420Y-133906260D03*
X84513420Y-144066260D03*
D12*
X168971000Y-75285600D03*
X168971000Y-72745600D03*
X168971000Y-70205600D03*
X168971000Y-67665600D03*
X168971000Y-65125600D03*
X168971000Y-62585600D03*
X168971000Y-60045600D03*
X168971000Y-57505600D03*
X168971000Y-54965600D03*
X168971000Y-52425600D03*
X161351000Y-52425600D03*
X161351000Y-54965600D03*
X161351000Y-57505600D03*
X161351000Y-60045600D03*
X161351000Y-62585600D03*
X161351000Y-65125600D03*
X161351000Y-67665600D03*
X161351000Y-70205600D03*
X161351000Y-72745600D03*
X161351000Y-75285600D03*
D19*
X223000000Y-60400000D03*
X223000000Y-62940000D03*
X223000000Y-65480000D03*
X223000000Y-68020000D03*
X223000000Y-70560000D03*
X223000000Y-73100000D03*
X223000000Y-75640000D03*
X223000000Y-78180000D03*
X223000000Y-80720000D03*
X223000000Y-83260000D03*
X223000000Y-85800000D03*
X223000000Y-88340000D03*
X223000000Y-90880000D03*
X223000000Y-93420000D03*
X223000000Y-95960000D03*
X223000000Y-98500000D03*
X223000000Y-101040000D03*
X223000000Y-103580000D03*
X223000000Y-106120000D03*
X223000000Y-108660000D03*
X223000000Y-111200000D03*
X223000000Y-113740000D03*
X223000000Y-116280000D03*
X223000000Y-118820000D03*
X223000000Y-121360000D03*
X223000000Y-123900000D03*
X223000000Y-126440000D03*
X223000000Y-128980000D03*
X223000000Y-131520000D03*
X223000000Y-134060000D03*
X223000000Y-136600000D03*
D11*
X192262800Y-62611000D03*
X192262800Y-52451000D03*
D12*
X205369200Y-67614800D03*
X205369200Y-65074800D03*
X205369200Y-62534800D03*
X205369200Y-59994800D03*
X205369200Y-57454800D03*
X205369200Y-54914800D03*
X205369200Y-52374800D03*
X197749200Y-52374800D03*
X197749200Y-54914800D03*
X197749200Y-57454800D03*
X197749200Y-59994800D03*
X197749200Y-62534800D03*
X197749200Y-65074800D03*
X197749200Y-67614800D03*
X189367200Y-67614800D03*
X189367200Y-65074800D03*
X189367200Y-62534800D03*
X189367200Y-59994800D03*
X189367200Y-57454800D03*
X189367200Y-54914800D03*
X189367200Y-52374800D03*
X181747200Y-52374800D03*
X181747200Y-54914800D03*
X181747200Y-57454800D03*
X181747200Y-59994800D03*
X181747200Y-62534800D03*
X181747200Y-65074800D03*
X181747200Y-67614800D03*
X161351000Y-94742000D03*
X161351000Y-97282000D03*
X161351000Y-99822000D03*
X161351000Y-102362000D03*
X161351000Y-104902000D03*
X161351000Y-107442000D03*
X161351000Y-109982000D03*
X161351000Y-112522000D03*
X161351000Y-115062000D03*
X161351000Y-117602000D03*
X161351000Y-120142000D03*
X161351000Y-122682000D03*
X161351000Y-125222000D03*
X161351000Y-127762000D03*
X176591000Y-127762000D03*
X176591000Y-125222000D03*
X176591000Y-122682000D03*
X176591000Y-120142000D03*
X176591000Y-117602000D03*
X176591000Y-115062000D03*
X176591000Y-112522000D03*
X176591000Y-109982000D03*
X176591000Y-107442000D03*
X176591000Y-104902000D03*
X176591000Y-102362000D03*
X176591000Y-99822000D03*
X176591000Y-97282000D03*
X176591000Y-94742000D03*
X205445400Y-107188000D03*
X205445400Y-104648000D03*
X205445400Y-102108000D03*
X205445400Y-99568000D03*
X205445400Y-97028000D03*
X205445400Y-94488000D03*
X205445400Y-91948000D03*
X205445400Y-89408000D03*
X205445400Y-86868000D03*
X205445400Y-84328000D03*
X197825400Y-84328000D03*
X197825400Y-86868000D03*
X197825400Y-89408000D03*
X197825400Y-91948000D03*
X197825400Y-94488000D03*
X197825400Y-97028000D03*
X197825400Y-99568000D03*
X197825400Y-102108000D03*
X197825400Y-104648000D03*
X197825400Y-107188000D03*
X205597800Y-140411200D03*
X205597800Y-137871200D03*
X205597800Y-135331200D03*
X205597800Y-132791200D03*
X205597800Y-130251200D03*
X205597800Y-127711200D03*
X205597800Y-125171200D03*
X205597800Y-122631200D03*
X205597800Y-120091200D03*
X205597800Y-117551200D03*
X197977800Y-117551200D03*
X197977800Y-120091200D03*
X197977800Y-122631200D03*
X197977800Y-125171200D03*
X197977800Y-127711200D03*
X197977800Y-130251200D03*
X197977800Y-132791200D03*
X197977800Y-135331200D03*
X197977800Y-137871200D03*
X197977800Y-140411200D03*
D16*
X108214160Y-67551300D03*
D17*
X108214160Y-70091300D03*
X108214160Y-72631300D03*
X108214160Y-75171300D03*
X108214160Y-77711300D03*
X108214160Y-80251300D03*
D11*
X84513420Y-118142260D03*
X84513420Y-128302260D03*
X82100420Y-135947660D03*
X82100420Y-125787660D03*
D20*
X79154020Y-146082260D03*
X74074020Y-146082260D03*
X79154020Y-138462260D03*
X74074020Y-138462260D03*
X79154020Y-125762260D03*
X74074020Y-125762260D03*
X79154020Y-118142260D03*
X74074020Y-118142260D03*
X79154020Y-135922260D03*
X74074020Y-135922260D03*
X79154020Y-128302260D03*
X74074020Y-128302260D03*
D14*
X103567840Y-71183500D03*
D15*
X103567840Y-68643500D03*
D14*
X103565300Y-64770000D03*
D15*
X103565300Y-62230000D03*
D14*
X103565300Y-58737500D03*
D15*
X103565300Y-56197500D03*
D11*
X103070660Y-133504940D03*
X92910660Y-133504940D03*
X103070660Y-136044940D03*
X92910660Y-136044940D03*
X120004840Y-132359400D03*
X130164840Y-132359400D03*
X119984520Y-142523720D03*
X130144520Y-142523720D03*
X119984520Y-139983720D03*
X130144520Y-139983720D03*
X119984520Y-137443720D03*
X130144520Y-137443720D03*
X119984520Y-134903720D03*
X130144520Y-134903720D03*
X120004840Y-129834640D03*
X130164840Y-129834640D03*
X103070660Y-125884940D03*
X92910660Y-125884940D03*
X119984520Y-127283720D03*
X130144520Y-127283720D03*
X119984520Y-124743720D03*
X130144520Y-124743720D03*
X103070660Y-128424940D03*
X92910660Y-128424940D03*
X103070660Y-130964940D03*
X92910660Y-130964940D03*
D21*
X145743920Y-116263420D03*
D22*
X150743920Y-116263420D03*
D21*
X141678000Y-85810080D03*
D22*
X141678000Y-90810080D03*
D21*
X143612860Y-144399000D03*
D22*
X148612860Y-144399000D03*
D21*
X179735000Y-94742000D03*
D22*
X179735000Y-99742000D03*
D21*
X165288000Y-79781400D03*
D22*
X170288000Y-79781400D03*
D21*
X197876200Y-111348000D03*
D22*
X202876200Y-111348000D03*
D21*
X197930800Y-144596600D03*
D22*
X202930800Y-144596600D03*
D21*
X197749200Y-71851000D03*
D22*
X202749200Y-71851000D03*
D21*
X181747200Y-72446400D03*
D22*
X186747200Y-72446400D03*
D21*
X89062560Y-83050380D03*
D22*
X84062560Y-83050380D03*
D21*
X88452458Y-50984684D03*
D22*
X83452458Y-50984684D03*
M02*
